<svg width="47" height="47" viewBox="0 0 47 47" fill="none" xmlns="http://www.w3.org/2000/svg">
<path d="M41.7778 0H5.22222C2.33694 0 0 2.33694 0 5.22222V41.7778C0 44.6631 2.33694 47 5.22222 47H41.7778C44.6631 47 47 44.6631 47 41.7778V5.22222C47 2.33694 44.6631 0 41.7778 0ZM38.9238 33.1193L34.3936 33.182C34.3936 33.182 33.417 33.3726 32.1376 32.4901C30.4429 31.3255 28.8449 28.2966 27.5994 28.6909C26.3357 29.093 26.3748 31.819 26.3748 31.819C26.3748 31.819 26.3853 32.2994 26.0954 32.6128C25.7821 32.9496 25.1685 32.9157 25.1685 32.9157H23.1397C23.1397 32.9157 18.6642 33.2864 14.7188 29.1739C10.4209 24.6907 6.62439 15.8416 6.62439 15.8416C6.62439 15.8416 6.40245 15.2828 6.64006 14.9982C6.909 14.6823 7.63489 14.6744 7.63489 14.6744L12.4837 14.6509C12.4837 14.6509 12.9407 14.7319 13.2697 14.9721C13.5386 15.1706 13.6927 15.5439 13.6927 15.5439C13.6927 15.5439 14.476 17.531 15.5152 19.3301C17.5414 22.8368 18.4841 23.6044 19.1708 23.2284C20.1734 22.6801 19.8732 18.2726 19.8732 18.2726C19.8732 18.2726 19.8914 16.6719 19.3692 15.9591C18.9619 15.4029 18.1968 15.2384 17.86 15.1967C17.5858 15.1601 18.0323 14.5256 18.6146 14.2384C19.4867 13.8128 21.0299 13.7867 22.8498 13.8049C24.2677 13.8206 24.6776 13.9068 25.2312 14.0426C26.9049 14.4473 26.3357 16.0087 26.3357 19.7557C26.3357 20.9568 26.1189 22.6436 26.9832 23.1997C27.3566 23.4399 28.2653 23.2363 30.5343 19.3718C31.6127 17.5388 32.4196 15.3847 32.4196 15.3847C32.4196 15.3847 32.5971 15.0008 32.8713 14.8363C33.1533 14.6666 33.5319 14.7188 33.5319 14.7188L38.6366 14.6875C38.6366 14.6875 40.1693 14.5021 40.42 15.1993C40.6811 15.9278 39.8482 17.6276 37.7619 20.4084C34.3387 24.9779 33.9575 24.5523 36.801 27.1947C39.5166 29.7197 40.0779 30.9469 40.1719 31.1009C41.2947 32.9705 38.9238 33.1193 38.9238 33.1193Z" fill="white"/>
</svg>
