<svg width="225" height="85" viewBox="0 0 225 85" fill="none" xmlns="http://www.w3.org/2000/svg">
<path d="M99.7795 47.1C98.2728 47.1 97.1628 46.78 96.4495 46.14C95.7362 45.5 95.3795 44.5867 95.3795 43.4C95.3795 42.2067 95.7362 41.2633 96.4495 40.57C97.1628 39.8767 98.2728 39.53 99.7795 39.53C101.886 39.53 103.296 40.2533 104.009 41.7C103.409 41.9067 102.706 42.2167 101.899 42.63C101.706 42.2567 101.399 41.98 100.979 41.8C100.566 41.62 100.143 41.53 99.7095 41.53C99.0695 41.53 98.5928 41.7 98.2795 42.04C97.9662 42.3733 97.8095 42.7867 97.8095 43.28C97.8095 43.8133 97.9762 44.25 98.3095 44.59C98.6495 44.9233 99.1662 45.09 99.8595 45.09C100.413 45.09 100.853 45 101.179 44.82C101.506 44.6333 101.746 44.34 101.899 43.94C102.446 44.2333 103.146 44.5633 103.999 44.93C103.666 45.7367 103.109 46.3 102.329 46.62C101.549 46.94 100.699 47.1 99.7795 47.1ZM108.033 47.1C106.893 47.1 106.053 46.84 105.513 46.32C104.98 45.7933 104.713 45.1033 104.713 44.25C104.713 43.4167 104.98 42.74 105.513 42.22C106.053 41.7 106.893 41.44 108.033 41.44C108.8 41.44 109.44 41.5667 109.953 41.82C110.473 42.0667 110.856 42.4033 111.103 42.83C111.35 43.25 111.473 43.7233 111.473 44.25C111.473 45.11 111.186 45.8 110.613 46.32C110.046 46.84 109.186 47.1 108.033 47.1ZM108.073 45.4C108.506 45.4 108.83 45.2967 109.043 45.09C109.256 44.8833 109.363 44.6067 109.363 44.26C109.363 43.9333 109.256 43.6667 109.043 43.46C108.83 43.2467 108.506 43.14 108.073 43.14C107.64 43.14 107.323 43.2433 107.123 43.45C106.923 43.6567 106.823 43.9267 106.823 44.26C106.823 44.6067 106.923 44.8833 107.123 45.09C107.323 45.2967 107.64 45.4 108.073 45.4ZM116.566 44.2C116.633 44.1933 116.726 44.19 116.846 44.19C117.293 44.19 117.62 44.2933 117.826 44.5C118.04 44.7067 118.146 44.95 118.146 45.23C118.146 45.8233 117.876 46.2833 117.336 46.61C116.796 46.9367 116.103 47.1 115.256 47.1C114.516 47.1 113.863 46.9733 113.296 46.72C112.736 46.4667 112.33 46.04 112.076 45.44L112.506 45.33C113.126 45.1767 113.586 45.03 113.886 44.89C113.993 45.0967 114.143 45.2567 114.336 45.37C114.53 45.4767 114.786 45.53 115.106 45.53C115.466 45.53 115.74 45.4967 115.926 45.43C116.12 45.3633 116.216 45.2533 116.216 45.1C116.216 44.98 116.11 44.8967 115.896 44.85C115.683 44.8033 115.376 44.78 114.976 44.78H114.406V43.46H114.746C115.113 43.46 115.406 43.4433 115.626 43.41C115.846 43.3767 115.956 43.3033 115.956 43.19C115.956 43.0767 115.893 42.9867 115.766 42.92C115.64 42.8533 115.47 42.82 115.256 42.82C114.91 42.82 114.636 42.8833 114.436 43.01C114.243 43.1367 114.06 43.3433 113.886 43.63C113.36 43.41 112.783 43.2533 112.156 43.16C112.67 42.02 113.736 41.45 115.356 41.45C115.83 41.45 116.263 41.52 116.656 41.66C117.05 41.7933 117.36 41.98 117.586 42.22C117.813 42.4533 117.926 42.7167 117.926 43.01C117.926 43.65 117.473 44.0467 116.566 44.2ZM125.086 45.58H125.386V48.27H123.496V47.18H120.336V48.29H118.446V45.58H118.776C119.003 45.5467 119.173 45.4633 119.286 45.33C119.406 45.1967 119.5 44.9767 119.566 44.67C119.613 44.43 119.636 43.8567 119.636 42.95V41.54L125.086 41.55V45.58ZM121.336 45.25C121.323 45.3233 121.296 45.4333 121.256 45.58H123.176V43.23H121.476V43.53C121.47 43.9167 121.46 44.2233 121.446 44.45C121.433 44.67 121.396 44.9367 121.336 45.25ZM132.6 45.34C132.6 45.5667 132.627 45.7267 132.68 45.82C132.733 45.9133 132.84 45.98 133 46.02L132.96 46.96C132.747 46.9933 132.56 47.0167 132.4 47.03C132.247 47.0433 132.04 47.05 131.78 47.05C131.207 47.05 130.827 46.9233 130.64 46.67C130.453 46.41 130.36 46.08 130.36 45.68V45.43C130.167 45.9767 129.883 46.3833 129.51 46.65C129.143 46.9167 128.673 47.05 128.1 47.05C127.433 47.05 126.93 46.9167 126.59 46.65C126.257 46.3833 126.09 45.9867 126.09 45.46C126.09 45.0267 126.233 44.6867 126.52 44.44C126.807 44.1933 127.25 44.0233 127.85 43.93C127.343 43.57 126.837 43.2567 126.33 42.99C126.73 42.4833 127.187 42.1 127.7 41.84C128.213 41.5733 128.837 41.44 129.57 41.44C130.597 41.44 131.357 41.6633 131.85 42.11C132.35 42.55 132.6 43.23 132.6 44.15V45.34ZM129.78 43.2C129.44 43.2 129.14 43.2567 128.88 43.37C128.62 43.4833 128.387 43.6533 128.18 43.88C128.58 43.8333 129.08 43.81 129.68 43.81C129.927 43.81 130.1 43.78 130.2 43.72C130.3 43.66 130.35 43.5833 130.35 43.49C130.35 43.41 130.3 43.3433 130.2 43.29C130.1 43.23 129.96 43.2 129.78 43.2ZM128.73 45.42C129.103 45.42 129.44 45.35 129.74 45.21C130.04 45.0633 130.247 44.8733 130.36 44.64V44.38C130.2 44.46 130.023 44.5233 129.83 44.57C129.637 44.61 129.403 44.65 129.13 44.69L128.77 44.75C128.397 44.8233 128.21 44.95 128.21 45.13C128.21 45.3233 128.383 45.42 128.73 45.42ZM138.012 44.29C139.152 44.29 139.722 44.6533 139.722 45.38C139.722 45.9 139.522 46.3 139.122 46.58C138.729 46.86 138.015 47 136.982 47H133.602C133.635 46.24 133.652 45.33 133.652 44.27C133.652 43.21 133.635 42.3 133.602 41.54H135.672V41.55H136.972C137.599 41.55 138.089 41.6033 138.442 41.71C138.802 41.81 139.055 41.9567 139.202 42.15C139.349 42.3433 139.422 42.59 139.422 42.89C139.422 43.5633 138.952 44.03 138.012 44.29ZM135.672 42.92V43.62H136.432C136.739 43.62 136.955 43.5933 137.082 43.54C137.209 43.48 137.272 43.3767 137.272 43.23C137.272 43.1167 137.205 43.0367 137.072 42.99C136.945 42.9433 136.732 42.92 136.432 42.92H135.672ZM136.432 45.62C136.812 45.62 137.072 45.5933 137.212 45.54C137.352 45.48 137.422 45.3767 137.422 45.23C137.422 45.1033 137.349 45.01 137.202 44.95C137.055 44.89 136.799 44.86 136.432 44.86H135.672V45.62H136.432ZM146.829 45.34C146.829 45.5667 146.855 45.7267 146.909 45.82C146.962 45.9133 147.069 45.98 147.229 46.02L147.189 46.96C146.975 46.9933 146.789 47.0167 146.629 47.03C146.475 47.0433 146.269 47.05 146.009 47.05C145.435 47.05 145.055 46.9233 144.869 46.67C144.682 46.41 144.589 46.08 144.589 45.68V45.43C144.395 45.9767 144.112 46.3833 143.739 46.65C143.372 46.9167 142.902 47.05 142.329 47.05C141.662 47.05 141.159 46.9167 140.819 46.65C140.485 46.3833 140.319 45.9867 140.319 45.46C140.319 45.0267 140.462 44.6867 140.749 44.44C141.035 44.1933 141.479 44.0233 142.079 43.93C141.572 43.57 141.065 43.2567 140.559 42.99C140.959 42.4833 141.415 42.1 141.929 41.84C142.442 41.5733 143.065 41.44 143.799 41.44C144.825 41.44 145.585 41.6633 146.079 42.11C146.579 42.55 146.829 43.23 146.829 44.15V45.34ZM144.009 43.2C143.669 43.2 143.369 43.2567 143.109 43.37C142.849 43.4833 142.615 43.6533 142.409 43.88C142.809 43.8333 143.309 43.81 143.909 43.81C144.155 43.81 144.329 43.78 144.429 43.72C144.529 43.66 144.579 43.5833 144.579 43.49C144.579 43.41 144.529 43.3433 144.429 43.29C144.329 43.23 144.189 43.2 144.009 43.2ZM142.959 45.42C143.332 45.42 143.669 45.35 143.969 45.21C144.269 45.0633 144.475 44.8733 144.589 44.64V44.38C144.429 44.46 144.252 44.5233 144.059 44.57C143.865 44.61 143.632 44.65 143.359 44.69L142.999 44.75C142.625 44.8233 142.439 44.95 142.439 45.13C142.439 45.3233 142.612 45.42 142.959 45.42ZM153.961 41.54C153.927 42.5533 153.911 43.4633 153.911 44.27C153.911 45.0767 153.927 45.9867 153.961 47H151.991V45.26H151.181C150.721 45.9867 150.374 46.5667 150.141 47H147.791C148.324 46.2733 148.774 45.6467 149.141 45.12C148.627 44.9867 148.264 44.77 148.051 44.47C147.837 44.17 147.731 43.8 147.731 43.36C147.731 42.8067 147.931 42.3667 148.331 42.04C148.731 41.7133 149.437 41.55 150.451 41.55H151.991V41.54H153.961ZM151.991 43.85V42.99H151.091C150.604 42.99 150.274 43.02 150.101 43.08C149.934 43.14 149.851 43.25 149.851 43.41C149.851 43.5767 149.937 43.6933 150.111 43.76C150.291 43.82 150.617 43.85 151.091 43.85H151.991ZM92.3747 55.54L92.7547 61H90.8147L90.6947 57.09L89.9347 61H87.5647L86.7947 57.14L86.6847 61H84.7447L85.1247 55.54H88.0847L88.7347 59.11L89.3147 55.54H92.3747ZM97.0233 56.76C98.0167 56.76 98.71 56.9567 99.1033 57.35C99.4967 57.7367 99.6933 58.2767 99.6933 58.97C99.6933 59.6167 99.4967 60.1167 99.1033 60.47C98.7167 60.8167 98.0233 60.99 97.0233 60.99H95.6933V61H93.5533C93.5867 60.24 93.6033 59.33 93.6033 58.27C93.6033 57.21 93.5867 56.3 93.5533 55.54H95.6933V56.76H97.0233ZM102.273 55.54C102.24 56.2867 102.223 57.1933 102.223 58.26C102.223 59.32 102.24 60.2267 102.273 60.98H100.083C100.103 59.64 100.113 58.5133 100.113 57.6C100.113 56.6867 100.103 56 100.083 55.54H102.273ZM96.4233 59.4C96.8967 59.4 97.2267 59.3633 97.4133 59.29C97.6 59.2167 97.6933 59.0733 97.6933 58.86C97.6933 58.6467 97.5967 58.5033 97.4033 58.43C97.21 58.35 96.8833 58.31 96.4233 58.31L95.6933 58.32V59.4H96.4233ZM107.107 58.27C107.12 58.61 107.227 58.8833 107.427 59.09C107.633 59.2967 107.937 59.4 108.337 59.4C108.557 59.4 108.753 59.36 108.927 59.28C109.1 59.1933 109.26 59.0667 109.407 58.9C109.973 59.12 110.637 59.31 111.397 59.47C111.177 59.9833 110.803 60.3833 110.277 60.67C109.757 60.9567 109.08 61.1 108.247 61.1C107.133 61.1 106.31 60.84 105.777 60.32C105.243 59.8 104.977 59.1167 104.977 58.27C104.977 57.4233 105.243 56.74 105.777 56.22C106.31 55.7 107.133 55.44 108.247 55.44C109.08 55.44 109.757 55.5833 110.277 55.87C110.803 56.1567 111.177 56.5567 111.397 57.07C110.803 57.1967 110.14 57.3867 109.407 57.64C109.26 57.4733 109.1 57.35 108.927 57.27C108.753 57.1833 108.557 57.14 108.337 57.14C107.937 57.14 107.633 57.2433 107.427 57.45C107.227 57.6567 107.12 57.93 107.107 58.27ZM115.367 61.1C114.227 61.1 113.387 60.84 112.847 60.32C112.314 59.7933 112.047 59.1033 112.047 58.25C112.047 57.4167 112.314 56.74 112.847 56.22C113.387 55.7 114.227 55.44 115.367 55.44C116.134 55.44 116.774 55.5667 117.287 55.82C117.807 56.0667 118.19 56.4033 118.437 56.83C118.684 57.25 118.807 57.7233 118.807 58.25C118.807 59.11 118.52 59.8 117.947 60.32C117.38 60.84 116.52 61.1 115.367 61.1ZM115.407 59.4C115.84 59.4 116.164 59.2967 116.377 59.09C116.59 58.8833 116.697 58.6067 116.697 58.26C116.697 57.9333 116.59 57.6667 116.377 57.46C116.164 57.2467 115.84 57.14 115.407 57.14C114.974 57.14 114.657 57.2433 114.457 57.45C114.257 57.6567 114.157 57.9267 114.157 58.26C114.157 58.6067 114.257 58.8833 114.457 59.09C114.657 59.2967 114.974 59.4 115.407 59.4ZM123.84 58.2L125.94 61H123.46C123.334 60.7467 123.1 60.3767 122.76 59.89L122.53 59.56C122.49 59.62 122.444 59.6833 122.39 59.75C122.344 59.8167 122.297 59.89 122.25 59.97C122.117 60.1567 121.99 60.34 121.87 60.52C121.757 60.7 121.664 60.86 121.59 61H119.11L121.21 58.2L119.19 55.54H121.66C121.754 55.7267 121.934 56.0167 122.2 56.41L122.53 56.91L122.81 56.48C123.09 56.06 123.284 55.7467 123.39 55.54H125.86L123.84 58.2ZM130.707 55.44C131.14 55.44 131.53 55.5633 131.877 55.81C132.223 56.0567 132.493 56.3933 132.687 56.82C132.88 57.24 132.977 57.7033 132.977 58.21C132.977 58.71 132.88 59.1833 132.687 59.63C132.493 60.07 132.22 60.4267 131.867 60.7C131.52 60.9667 131.123 61.1 130.677 61.1C130.157 61.1 129.71 60.9933 129.337 60.78C128.97 60.56 128.697 60.2233 128.517 59.77C128.517 60.15 128.53 60.76 128.557 61.6C128.583 62.4133 128.597 62.9867 128.597 63.32H126.337C126.377 62.08 126.397 60.7833 126.397 59.43C126.397 58.0767 126.377 56.78 126.337 55.54H128.257L128.547 56.79C128.733 56.3233 129.013 55.9833 129.387 55.77C129.76 55.55 130.2 55.44 130.707 55.44ZM129.637 59.3C129.937 59.3 130.187 59.2067 130.387 59.02C130.593 58.8267 130.697 58.5767 130.697 58.27C130.697 57.93 130.603 57.6533 130.417 57.44C130.23 57.2267 129.977 57.12 129.657 57.12C129.29 57.12 129.013 57.21 128.827 57.39C128.64 57.5633 128.547 57.8567 128.547 58.27C128.547 58.5033 128.607 58.7 128.727 58.86C128.847 59.0133 128.99 59.1267 129.157 59.2C129.323 59.2667 129.483 59.3 129.637 59.3ZM140.09 59.34C140.09 59.5667 140.117 59.7267 140.17 59.82C140.224 59.9133 140.33 59.98 140.49 60.02L140.45 60.96C140.237 60.9933 140.05 61.0167 139.89 61.03C139.737 61.0433 139.53 61.05 139.27 61.05C138.697 61.05 138.317 60.9233 138.13 60.67C137.944 60.41 137.85 60.08 137.85 59.68V59.43C137.657 59.9767 137.374 60.3833 137 60.65C136.634 60.9167 136.164 61.05 135.59 61.05C134.924 61.05 134.42 60.9167 134.08 60.65C133.747 60.3833 133.58 59.9867 133.58 59.46C133.58 59.0267 133.724 58.6867 134.01 58.44C134.297 58.1933 134.74 58.0233 135.34 57.93C134.834 57.57 134.327 57.2567 133.82 56.99C134.22 56.4833 134.677 56.1 135.19 55.84C135.704 55.5733 136.327 55.44 137.06 55.44C138.087 55.44 138.847 55.6633 139.34 56.11C139.84 56.55 140.09 57.23 140.09 58.15V59.34ZM137.27 57.2C136.93 57.2 136.63 57.2567 136.37 57.37C136.11 57.4833 135.877 57.6533 135.67 57.88C136.07 57.8333 136.57 57.81 137.17 57.81C137.417 57.81 137.59 57.78 137.69 57.72C137.79 57.66 137.84 57.5833 137.84 57.49C137.84 57.41 137.79 57.3433 137.69 57.29C137.59 57.23 137.45 57.2 137.27 57.2ZM136.22 59.42C136.594 59.42 136.93 59.35 137.23 59.21C137.53 59.0633 137.737 58.8733 137.85 58.64V58.38C137.69 58.46 137.514 58.5233 137.32 58.57C137.127 58.61 136.894 58.65 136.62 58.69L136.26 58.75C135.887 58.8233 135.7 58.95 135.7 59.13C135.7 59.3233 135.874 59.42 136.22 59.42ZM147.392 55.54C147.359 56.5533 147.342 57.4633 147.342 58.27C147.342 59.0767 147.359 59.9867 147.392 61H145.222V59.18H143.262V61H141.092C141.126 60.24 141.142 59.33 141.142 58.27C141.142 57.21 141.126 56.3 141.092 55.54H143.262V57.36H145.222V55.54H147.392ZM154.322 55.54C154.289 56.5533 154.272 57.4633 154.272 58.27C154.272 59.0767 154.289 59.9867 154.322 61H152.352V59.26H151.542C151.082 59.9867 150.735 60.5667 150.502 61H148.152C148.685 60.2733 149.135 59.6467 149.502 59.12C148.989 58.9867 148.625 58.77 148.412 58.47C148.199 58.17 148.092 57.8 148.092 57.36C148.092 56.8067 148.292 56.3667 148.692 56.04C149.092 55.7133 149.799 55.55 150.812 55.55H152.352V55.54H154.322ZM152.352 57.85V56.99H151.452C150.965 56.99 150.635 57.02 150.462 57.08C150.295 57.14 150.212 57.25 150.212 57.41C150.212 57.5767 150.299 57.6933 150.472 57.76C150.652 57.82 150.979 57.85 151.452 57.85H152.352ZM160.416 58.5H157.156C157.209 58.7933 157.339 59.0333 157.546 59.22C157.759 59.4 158.059 59.49 158.446 59.49C158.726 59.49 158.989 59.4367 159.236 59.33C159.482 59.2167 159.679 59.06 159.826 58.86C160.272 59.08 160.866 59.3167 161.606 59.57C161.399 60.0367 161.022 60.41 160.476 60.69C159.936 60.9633 159.229 61.1 158.356 61.1C157.222 61.1 156.382 60.84 155.836 60.32C155.296 59.7933 155.026 59.1033 155.026 58.25C155.026 57.4167 155.296 56.74 155.836 56.22C156.376 55.7 157.216 55.44 158.356 55.44C159.036 55.44 159.626 55.5533 160.126 55.78C160.626 56.0067 161.009 56.3233 161.276 56.73C161.542 57.13 161.676 57.59 161.676 58.11C161.676 58.2833 161.669 58.4133 161.656 58.5H160.416ZM158.496 56.95C158.162 56.95 157.889 57.0133 157.676 57.14C157.462 57.2667 157.312 57.44 157.226 57.66H159.586C159.506 57.4467 159.376 57.2767 159.196 57.15C159.016 57.0167 158.782 56.95 158.496 56.95ZM170.002 55.54L170.382 61H168.442L168.322 57.09L167.562 61H165.192L164.422 57.14L164.312 61H162.372L162.752 55.54H165.712L166.362 59.11L166.942 55.54H170.002Z" fill="white"/>
<path d="M161.096 44.2L163.196 47H160.716C160.59 46.7467 160.356 46.3767 160.016 45.89L159.786 45.56C159.746 45.62 159.7 45.6833 159.646 45.75C159.6 45.8167 159.553 45.89 159.506 45.97C159.373 46.1567 159.246 46.34 159.126 46.52C159.013 46.7 158.92 46.86 158.846 47H156.366L158.466 44.2L156.446 41.54H158.916C159.01 41.7267 159.19 42.0167 159.456 42.41L159.786 42.91L160.066 42.48C160.346 42.06 160.54 41.7467 160.646 41.54H163.116L161.096 44.2ZM166.812 47.1C165.672 47.1 164.832 46.84 164.292 46.32C163.759 45.7933 163.492 45.1033 163.492 44.25C163.492 43.4167 163.759 42.74 164.292 42.22C164.832 41.7 165.672 41.44 166.812 41.44C167.579 41.44 168.219 41.5667 168.732 41.82C169.252 42.0667 169.636 42.4033 169.882 42.83C170.129 43.25 170.252 43.7233 170.252 44.25C170.252 45.11 169.966 45.8 169.392 46.32C168.826 46.84 167.966 47.1 166.812 47.1ZM166.852 45.4C167.286 45.4 167.609 45.2967 167.822 45.09C168.036 44.8833 168.142 44.6067 168.142 44.26C168.142 43.9333 168.036 43.6667 167.822 43.46C167.609 43.2467 167.286 43.14 166.852 43.14C166.419 43.14 166.102 43.2433 165.902 43.45C165.702 43.6567 165.602 43.9267 165.602 44.26C165.602 44.6067 165.702 44.8833 165.902 45.09C166.102 45.2967 166.419 45.4 166.852 45.4ZM177.186 47.05H174.996V43.43H173.576L173.566 43.74C173.559 44.06 173.546 44.3433 173.526 44.59C173.512 44.83 173.479 45.09 173.426 45.37C173.199 46.59 172.276 47.2 170.656 47.2V45.61C170.969 45.57 171.182 45.4733 171.296 45.32C171.409 45.16 171.466 44.9133 171.466 44.58V41.54L177.186 41.55V47.05ZM181.207 47.1C180.067 47.1 179.227 46.84 178.687 46.32C178.154 45.7933 177.887 45.1033 177.887 44.25C177.887 43.4167 178.154 42.74 178.687 42.22C179.227 41.7 180.067 41.44 181.207 41.44C181.974 41.44 182.614 41.5667 183.127 41.82C183.647 42.0667 184.03 42.4033 184.277 42.83C184.524 43.25 184.647 43.7233 184.647 44.25C184.647 45.11 184.36 45.8 183.787 46.32C183.22 46.84 182.36 47.1 181.207 47.1ZM181.247 45.4C181.68 45.4 182.004 45.2967 182.217 45.09C182.43 44.8833 182.537 44.6067 182.537 44.26C182.537 43.9333 182.43 43.6667 182.217 43.46C182.004 43.2467 181.68 43.14 181.247 43.14C180.814 43.14 180.497 43.2433 180.297 43.45C180.097 43.6567 179.997 43.9267 179.997 44.26C179.997 44.6067 180.097 44.8833 180.297 45.09C180.497 45.2967 180.814 45.4 181.247 45.4ZM191.59 45.58H191.89V48.27H190V47.18H186.84V48.29H184.95V45.58H185.28C185.507 45.5467 185.677 45.4633 185.79 45.33C185.91 45.1967 186.004 44.9767 186.07 44.67C186.117 44.43 186.14 43.8567 186.14 42.95V41.54L191.59 41.55V45.58ZM187.84 45.25C187.827 45.3233 187.8 45.4333 187.76 45.58H189.68V43.23H187.98V43.53C187.974 43.9167 187.964 44.2233 187.95 44.45C187.937 44.67 187.9 44.9367 187.84 45.25ZM193.654 44.97C193.954 44.97 194.204 45.0867 194.404 45.32C194.611 45.5467 194.714 45.8633 194.714 46.27C194.714 46.6033 194.654 46.9533 194.534 47.32C194.421 47.6867 194.261 47.9833 194.054 48.21H193.204C193.484 47.83 193.661 47.4567 193.734 47.09C193.387 47.09 193.111 46.9867 192.904 46.78C192.697 46.5733 192.594 46.3233 192.594 46.03C192.594 45.7367 192.697 45.4867 192.904 45.28C193.111 45.0733 193.361 44.97 193.654 44.97Z" fill="#5974D2"/>
<path d="M179.252 57.42C178.252 57.3933 177.526 57.3767 177.072 57.37V61H174.952V57.37C174.506 57.3767 173.782 57.3933 172.782 57.42V55.54H179.252V57.42ZM184.449 58.5H181.189C181.242 58.7933 181.372 59.0333 181.579 59.22C181.792 59.4 182.092 59.49 182.479 59.49C182.759 59.49 183.022 59.4367 183.269 59.33C183.515 59.2167 183.712 59.06 183.859 58.86C184.305 59.08 184.899 59.3167 185.639 59.57C185.432 60.0367 185.055 60.41 184.509 60.69C183.969 60.9633 183.262 61.1 182.389 61.1C181.255 61.1 180.415 60.84 179.869 60.32C179.329 59.7933 179.059 59.1033 179.059 58.25C179.059 57.4167 179.329 56.74 179.869 56.22C180.409 55.7 181.249 55.44 182.389 55.44C183.069 55.44 183.659 55.5533 184.159 55.78C184.659 56.0067 185.042 56.3233 185.309 56.73C185.575 57.13 185.709 57.59 185.709 58.11C185.709 58.2833 185.702 58.4133 185.689 58.5H184.449ZM182.529 56.95C182.195 56.95 181.922 57.0133 181.709 57.14C181.495 57.2667 181.345 57.44 181.259 57.66H183.619C183.539 57.4467 183.409 57.2767 183.229 57.15C183.049 57.0167 182.815 56.95 182.529 56.95ZM186.405 55.55H192.865V61.05H190.675V57.43H188.595V61.05H186.405V55.55ZM199.891 61.05H197.701V57.43H196.281L196.271 57.74C196.264 58.06 196.251 58.3433 196.231 58.59C196.217 58.83 196.184 59.09 196.131 59.37C195.904 60.59 194.981 61.2 193.361 61.2V59.61C193.674 59.57 193.887 59.4733 194.001 59.32C194.114 59.16 194.171 58.9133 194.171 58.58V55.54L199.891 55.55V61.05ZM203.912 61.1C202.772 61.1 201.932 60.84 201.392 60.32C200.859 59.7933 200.592 59.1033 200.592 58.25C200.592 57.4167 200.859 56.74 201.392 56.22C201.932 55.7 202.772 55.44 203.912 55.44C204.679 55.44 205.319 55.5667 205.832 55.82C206.352 56.0667 206.735 56.4033 206.982 56.83C207.229 57.25 207.352 57.7233 207.352 58.25C207.352 59.11 207.065 59.8 206.492 60.32C205.925 60.84 205.065 61.1 203.912 61.1ZM203.952 59.4C204.385 59.4 204.709 59.2967 204.922 59.09C205.135 58.8833 205.242 58.6067 205.242 58.26C205.242 57.9333 205.135 57.6667 204.922 57.46C204.709 57.2467 204.385 57.14 203.952 57.14C203.519 57.14 203.202 57.2433 203.002 57.45C202.802 57.6567 202.702 57.9267 202.702 58.26C202.702 58.6067 202.802 58.8833 203.002 59.09C203.202 59.2967 203.519 59.4 203.952 59.4Z" fill="#FF0000"/>
<path fillRule="evenodd" clipRule="evenodd" d="M67.4835 31.7623C63.7765 24.0462 49.7586 22.7755 36.1736 28.9242C22.5886 35.0729 14.5809 46.3125 18.2879 54.0287C21.9949 61.7448 36.0128 63.0155 49.5978 56.8668C63.1828 50.7181 71.1905 39.4785 67.4835 31.7623ZM64.2724 33.3131C60.8046 26.0947 47.7963 24.8584 35.2176 30.5516C22.6389 36.2449 15.2531 46.7117 18.7209 53.9301C22.1888 61.1484 35.1971 62.3847 47.7758 56.6915C60.3545 50.9983 67.7403 40.5314 64.2724 33.3131Z" fill="url(#paint0_linear_0_1)" fill-opacity="0.76"/>
<path fillRule="evenodd" clipRule="evenodd" d="M70.4835 30.7623C66.7765 23.0462 52.7586 21.7755 39.1736 27.9242C25.5886 34.0729 17.5809 45.3125 21.2879 53.0287C24.9949 60.7448 39.0128 62.0155 52.5978 55.8668C66.1828 49.7181 74.1905 38.4785 70.4835 30.7623ZM67.2724 32.3131C63.8046 25.0947 50.7963 23.8584 38.2176 29.5516C25.6389 35.2449 18.2531 45.7117 21.7209 52.9301C25.1888 60.1484 38.1971 61.3847 50.7758 55.6915C63.3545 49.9983 70.7403 39.5314 67.2724 32.3131Z" fill="url(#paint1_linear_0_1)" fill-opacity="0.76"/>
<path fillRule="evenodd" clipRule="evenodd" d="M73.4835 29.7623C69.7765 22.0462 55.7586 20.7755 42.1736 26.9242C28.5886 33.0729 20.5809 44.3125 24.2879 52.0287C27.9949 59.7448 42.0128 61.0155 55.5978 54.8668C69.1828 48.7181 77.1905 37.4785 73.4835 29.7623ZM70.2724 31.3131C66.8046 24.0947 53.7963 22.8584 41.2176 28.5516C28.6389 34.2449 21.2531 44.7117 24.7209 51.9301C28.1888 59.1484 41.1971 60.3847 53.7758 54.6915C66.3545 48.9983 73.7403 38.5314 70.2724 31.3131Z" fill="url(#paint2_linear_0_1)" fill-opacity="0.76"/>
<path fillRule="evenodd" clipRule="evenodd" d="M64.4835 32.7623C60.7765 25.0462 46.7586 23.7755 33.1736 29.9242C19.5886 36.0729 11.5809 47.3125 15.2879 55.0287C18.9949 62.7448 33.0128 64.0155 46.5978 57.8668C60.1828 51.7181 68.1905 40.4785 64.4835 32.7623ZM61.2724 34.3131C57.8046 27.0947 44.7963 25.8584 32.2176 31.5516C19.6389 37.2449 12.2531 47.7117 15.7209 54.9301C19.1888 62.1484 32.1971 63.3847 44.7758 57.6915C57.3545 51.9983 64.7403 41.5314 61.2724 34.3131Z" fill="url(#paint3_linear_0_1)" fill-opacity="0.76"/>
<path fillRule="evenodd" clipRule="evenodd" d="M64.6116 60.6007C71.5468 53.8692 67.531 39.0574 55.6419 27.5176C43.7529 15.9778 28.4927 12.0799 21.5574 18.8115C14.6222 25.543 18.638 40.3548 30.5271 51.8946C42.4161 63.4344 57.6763 67.3323 64.6116 60.6007ZM61.6649 58.8595C68.0058 52.705 64.1506 38.9845 53.0541 28.214C41.9576 17.4436 27.8219 13.7016 21.4811 19.8562C15.1403 26.0107 18.9955 39.7312 30.0919 50.5017C41.1884 61.2721 55.3241 65.0141 61.6649 58.8595Z" fill="url(#paint4_linear_0_1)"/>
<path fillRule="evenodd" clipRule="evenodd" d="M66.6116 62.6007C73.5468 55.8692 69.531 41.0574 57.6419 29.5176C45.7529 17.9778 30.4927 14.0799 23.5574 20.8115C16.6222 27.543 20.638 42.3548 32.5271 53.8946C44.4161 65.4344 59.6763 69.3323 66.6116 62.6007ZM63.6649 60.8595C70.0058 54.705 66.1506 40.9845 55.0541 30.214C43.9576 19.4436 29.8219 15.7016 23.4811 21.8562C17.1403 28.0107 20.9955 41.7312 32.0919 52.5017C43.1884 63.2721 57.3241 67.0141 63.6649 60.8595Z" fill="url(#paint5_linear_0_1)"/>
<path fillRule="evenodd" clipRule="evenodd" d="M68.6116 65.6007C75.5468 58.8692 71.531 44.0574 59.6419 32.5176C47.7529 20.9778 32.4927 17.0799 25.5574 23.8115C18.6222 30.543 22.638 45.3548 34.5271 56.8946C46.4161 68.4344 61.6763 72.3323 68.6116 65.6007ZM65.6649 63.8595C72.0058 57.705 68.1506 43.9845 57.0541 33.214C45.9576 22.4436 31.8219 18.7016 25.4811 24.8562C19.1403 31.0107 22.9955 44.7312 34.0919 55.5017C45.1884 66.2721 59.3241 70.0141 65.6649 63.8595Z" fill="url(#paint6_linear_0_1)"/>
<path fillRule="evenodd" clipRule="evenodd" d="M62.6116 58.6007C69.5468 51.8692 65.531 37.0574 53.6419 25.5176C41.7529 13.9778 26.4927 10.0799 19.5574 16.8115C12.6222 23.543 16.638 38.3548 28.5271 49.8946C40.4161 61.4344 55.6763 65.3323 62.6116 58.6007ZM61.8176 57.556C68.5548 51.0168 64.6996 36.6727 53.2068 25.5176C41.7141 14.3624 26.9358 10.6205 20.1987 17.1597C13.4615 23.6989 17.3167 38.043 28.8095 49.1982C40.3022 60.3533 55.0805 64.0952 61.8176 57.556Z" fill="url(#paint7_linear_0_1)"/>
<path d="M82.8853 29C82.5813 28.088 82.1733 26.944 81.6613 25.568H74.0053L72.8053 29H66.7812L73.5013 11.576H82.3333L89.1013 29H82.8853ZM80.2933 21.824C79.6853 20.144 79.0613 18.464 78.4213 16.784L77.8453 15.224C77.2853 16.68 76.4613 18.88 75.3733 21.824H80.2933ZM100.966 22.496C103.702 22.496 105.07 23.368 105.07 25.112C105.07 26.36 104.59 27.32 103.63 27.992C102.686 28.664 100.974 29 98.4939 29H90.3819C90.4619 27.176 90.5019 24.992 90.5019 22.448C90.5019 19.904 90.4619 17.72 90.3819 15.896H95.3499V15.92H98.4699C99.9739 15.92 101.15 16.048 101.998 16.304C102.862 16.544 103.47 16.896 103.822 17.36C104.174 17.824 104.35 18.416 104.35 19.136C104.35 20.752 103.222 21.872 100.966 22.496ZM95.3499 19.208V20.888H97.1739C97.9099 20.888 98.4299 20.824 98.7339 20.696C99.0379 20.552 99.1899 20.304 99.1899 19.952C99.1899 19.68 99.0299 19.488 98.7099 19.376C98.4059 19.264 97.8939 19.208 97.1739 19.208H95.3499ZM97.1739 25.688C98.0859 25.688 98.7099 25.624 99.0459 25.496C99.3819 25.352 99.5499 25.104 99.5499 24.752C99.5499 24.448 99.3739 24.224 99.0219 24.08C98.6699 23.936 98.0539 23.864 97.1739 23.864H95.3499V25.688H97.1739ZM121.309 20.408C118.909 20.344 117.165 20.304 116.077 20.288V29H110.989V20.288C109.917 20.304 108.181 20.344 105.781 20.408V15.896H121.309V20.408ZM130.008 29.24C127.272 29.24 125.256 28.616 123.96 27.368C122.68 26.104 122.04 24.448 122.04 22.4C122.04 20.4 122.68 18.776 123.96 17.528C125.256 16.28 127.272 15.656 130.008 15.656C131.848 15.656 133.384 15.96 134.616 16.568C135.864 17.16 136.784 17.968 137.376 18.992C137.968 20 138.264 21.136 138.264 22.4C138.264 24.464 137.576 26.12 136.2 27.368C134.84 28.616 132.776 29.24 130.008 29.24ZM130.104 25.16C131.144 25.16 131.92 24.912 132.432 24.416C132.944 23.92 133.2 23.256 133.2 22.424C133.2 21.64 132.944 21 132.432 20.504C131.92 19.992 131.144 19.736 130.104 19.736C129.064 19.736 128.304 19.984 127.824 20.48C127.344 20.976 127.104 21.624 127.104 22.424C127.104 23.256 127.344 23.92 127.824 24.416C128.304 24.912 129.064 25.16 130.104 25.16ZM150.344 22.28L155.384 29H149.432C149.128 28.392 148.568 27.504 147.752 26.336L147.2 25.544C147.104 25.688 146.992 25.84 146.864 26C146.752 26.16 146.64 26.336 146.528 26.528C146.208 26.976 145.904 27.416 145.616 27.848C145.344 28.28 145.12 28.664 144.944 29H138.992L144.032 22.28L139.184 15.896H145.112C145.336 16.344 145.768 17.04 146.408 17.984L147.2 19.184L147.872 18.152C148.544 17.144 149.008 16.392 149.264 15.896H155.192L150.344 22.28ZM164.063 29.24C161.327 29.24 159.311 28.616 158.015 27.368C156.735 26.104 156.095 24.448 156.095 22.4C156.095 20.4 156.735 18.776 158.015 17.528C159.311 16.28 161.327 15.656 164.063 15.656C165.903 15.656 167.439 15.96 168.671 16.568C169.919 17.16 170.839 17.968 171.431 18.992C172.023 20 172.319 21.136 172.319 22.4C172.319 24.464 171.631 26.12 170.255 27.368C168.895 28.616 166.831 29.24 164.063 29.24ZM164.159 25.16C165.199 25.16 165.975 24.912 166.487 24.416C166.999 23.92 167.255 23.256 167.255 22.424C167.255 21.64 166.999 21 166.487 20.504C165.975 19.992 165.199 19.736 164.159 19.736C163.119 19.736 162.359 19.984 161.879 20.48C161.399 20.976 161.159 21.624 161.159 22.424C161.159 23.256 161.399 23.92 161.879 24.416C162.359 24.912 163.119 25.16 164.159 25.16ZM188.959 29.12H183.703V20.432H180.295L180.271 21.176C180.255 21.944 180.223 22.624 180.175 23.216C180.143 23.792 180.063 24.416 179.935 25.088C179.391 28.016 177.175 29.48 173.287 29.48V25.664C174.039 25.568 174.551 25.336 174.823 24.968C175.095 24.584 175.231 23.992 175.231 23.192V15.896L188.959 15.92V29.12ZM198.61 29.24C195.874 29.24 193.858 28.616 192.562 27.368C191.282 26.104 190.642 24.448 190.642 22.4C190.642 20.4 191.282 18.776 192.562 17.528C193.858 16.28 195.874 15.656 198.61 15.656C200.45 15.656 201.986 15.96 203.218 16.568C204.466 17.16 205.386 17.968 205.978 18.992C206.57 20 206.866 21.136 206.866 22.4C206.866 24.464 206.178 26.12 204.802 27.368C203.442 28.616 201.378 29.24 198.61 29.24ZM198.706 25.16C199.746 25.16 200.522 24.912 201.034 24.416C201.546 23.92 201.802 23.256 201.802 22.424C201.802 21.64 201.546 21 201.034 20.504C200.522 19.992 199.746 19.736 198.706 19.736C197.666 19.736 196.906 19.984 196.426 20.48C195.946 20.976 195.706 21.624 195.706 22.424C195.706 23.256 195.946 23.92 196.426 24.416C196.906 24.912 197.666 25.16 198.706 25.16ZM223.53 25.592H224.25V32.048H219.714V29.432H212.13V32.096H207.594V25.592H208.386C208.93 25.512 209.338 25.312 209.61 24.992C209.898 24.672 210.122 24.144 210.282 23.408C210.394 22.832 210.45 21.456 210.45 19.28V15.896L223.53 15.92V25.592ZM214.53 24.8C214.498 24.976 214.434 25.24 214.338 25.592H218.946V19.952H214.866V20.672C214.85 21.6 214.826 22.336 214.794 22.88C214.762 23.408 214.674 24.048 214.53 24.8Z" fill="white"/>
<defs>
<linearGradient id="paint0_linear_0_1" x1="23.0621" y1="63.9655" x2="38.0911" y2="56.7452" gradientUnits="userSpaceOnUse">
<stop stopColor="white"/>
<stop offset="1" stopColor="#FF0000" stopOpacity="0.65"/>
</linearGradient>
<linearGradient id="paint1_linear_0_1" x1="26.062" y1="62.9662" x2="41.0894" y2="55.7467" gradientUnits="userSpaceOnUse">
<stop stopColor="white"/>
<stop offset="1" stopColor="#FF0000" stopOpacity="0.65"/>
</linearGradient>
<linearGradient id="paint2_linear_0_1" x1="29.0618" y1="61.9656" x2="44.0907" y2="54.7454" gradientUnits="userSpaceOnUse">
<stop stopColor="white"/>
<stop offset="1" stopColor="#FF0000" stopOpacity="0.65"/>
</linearGradient>
<linearGradient id="paint3_linear_0_1" x1="20.062" y1="64.966" x2="35.0894" y2="57.7465" gradientUnits="userSpaceOnUse">
<stop stopColor="white"/>
<stop offset="1" stopColor="#FF0000" stopOpacity="0.65"/>
</linearGradient>
<linearGradient id="paint4_linear_0_1" x1="12.6261" y1="27.4804" x2="25.5264" y2="40.7712" gradientUnits="userSpaceOnUse">
<stop stopColor="white"/>
<stop offset="1" stopColor="#FF0000"/>
</linearGradient>
<linearGradient id="paint5_linear_0_1" x1="14.6263" y1="29.4802" x2="27.5254" y2="42.7697" gradientUnits="userSpaceOnUse">
<stop stopColor="white"/>
<stop offset="1" stopColor="#FF0000"/>
</linearGradient>
<linearGradient id="paint6_linear_0_1" x1="16.6261" y1="32.4804" x2="29.5263" y2="45.7711" gradientUnits="userSpaceOnUse">
<stop stopColor="white"/>
<stop offset="1" stopColor="#FF0000"/>
</linearGradient>
<linearGradient id="paint7_linear_0_1" x1="19.5574" y1="16.8115" x2="61.3282" y2="59.8464" gradientUnits="userSpaceOnUse">
<stop stopColor="white"/>
<stop offset="1" stopColor="#FF0000"/>
</linearGradient>
</defs>
</svg>