<svg width="696" height="557" viewBox="0 0 696 557" fill="none" xmlns="http://www.w3.org/2000/svg">
<rect x="0.415039" y="0.804932" width="695.172" height="556.195" rx="12" fill="#DDDDDD"/>
<rect x="26.3828" y="340.335" width="466.84" height="11.3544" fill="#C4C4C4"/>
<rect x="26.3828" y="356.626" width="556.338" height="11.3544" fill="#C4C4C4"/>
<rect x="26.3828" y="372.917" width="412.416" height="11.3544" fill="#C4C4C4"/>
<rect x="26.3828" y="476.139" width="466.84" height="11.3544" fill="#C4C4C4"/>
<rect x="26.3828" y="492.43" width="556.338" height="11.3544" fill="#C4C4C4"/>
<rect x="26.3828" y="508.721" width="412.416" height="11.3544" fill="#C4C4C4"/>
<path d="M34.3733 318.367L36.1673 323.887H41.9727L37.276 327.299L39.07 332.818L34.3733 329.407L29.6766 332.818L31.4706 327.299L26.7739 323.887H32.5793L34.3733 318.367Z" fill="#D1CB31"/>
<path d="M49.3557 318.367L51.1497 323.887H56.9551L52.2584 327.299L54.0524 332.818L49.3557 329.407L44.659 332.818L46.453 327.299L41.7563 323.887H47.5617L49.3557 318.367Z" fill="#D1CB31"/>
<path d="M65.3367 318.367L67.1307 323.887H72.9361L68.2394 327.299L70.0334 332.818L65.3367 329.407L60.64 332.818L62.434 327.299L57.7373 323.887H63.5427L65.3367 318.367Z" fill="#D1CB31"/>
<path d="M81.3176 318.367L83.1116 323.887H88.917L84.2204 327.299L86.0143 332.818L81.3176 329.407L76.6209 332.818L78.4149 327.299L73.7182 323.887H79.5237L81.3176 318.367Z" fill="#D1CB31"/>
<path d="M94.302 318.367L96.096 323.887H101.901L97.2047 327.299L98.9987 332.818L94.302 329.407L89.6053 332.818L91.3993 327.299L86.7026 323.887H92.508L94.302 318.367Z" fill="#D1CB31"/>
<path d="M34.3733 454.17L36.1673 459.69H41.9727L37.276 463.102L39.07 468.622L34.3733 465.21L29.6766 468.622L31.4706 463.102L26.7739 459.69H32.5793L34.3733 454.17Z" fill="#D1CB31"/>
<path d="M49.3557 454.17L51.1497 459.69H56.9551L52.2584 463.102L54.0524 468.622L49.3557 465.21L44.659 468.622L46.453 463.102L41.7563 459.69H47.5617L49.3557 454.17Z" fill="#D1CB31"/>
<path d="M65.3367 454.17L67.1307 459.69H72.9361L68.2394 463.102L70.0334 468.622L65.3367 465.21L60.64 468.622L62.434 463.102L57.7373 459.69H63.5427L65.3367 454.17Z" fill="#D1CB31"/>
<path d="M81.3176 454.17L83.1116 459.69H88.917L84.2204 463.102L86.0143 468.622L81.3176 465.21L76.6209 468.622L78.4149 463.102L73.7182 459.69H79.5237L81.3176 454.17Z" fill="#D1CB31"/>
<path d="M94.302 454.17L96.096 459.69H101.901L97.2047 463.102L98.9987 468.622L94.302 465.21L89.6053 468.622L91.3993 463.102L86.7026 459.69H92.508L94.302 454.17Z" fill="#D1CB31"/>
<path d="M126.264 80.7109L128.058 86.2308H133.863L129.167 89.6423L130.961 95.1622L126.264 91.7507L121.567 95.1622L123.361 89.6423L118.665 86.2308H124.47L126.264 80.7109Z" fill="#D1CB31"/>
<path d="M141.246 80.7109L143.04 86.2308H148.846L144.149 89.6423L145.943 95.1622L141.246 91.7507L136.55 95.1622L138.344 89.6423L133.647 86.2308H139.452L141.246 80.7109Z" fill="#D1CB31"/>
<path d="M157.227 80.7109L159.021 86.2308H164.827L160.13 89.6423L161.924 95.1622L157.227 91.7507L152.531 95.1622L154.325 89.6423L149.628 86.2308H155.433L157.227 80.7109Z" fill="#D1CB31"/>
<path d="M173.208 80.7109L175.002 86.2308H180.808L176.111 89.6423L177.905 95.1622L173.208 91.7507L168.512 95.1622L170.306 89.6423L165.609 86.2308H171.414L173.208 80.7109Z" fill="#D1CB31"/>
<path d="M186.193 80.7109L187.987 86.2308H193.792L189.095 89.6423L190.889 95.1622L186.193 91.7507L181.496 95.1622L183.29 89.6423L178.593 86.2308H184.399L186.193 80.7109Z" fill="#D1CB31"/>
<path d="M24.0556 48.7773V39.4829L24.4192 39.8611H20.5792V38.5956H28.9719V39.8611H25.1319L25.481 39.4829V48.7773H24.0556ZM34.4095 48.8646C33.7695 48.8646 33.1829 48.7192 32.6496 48.4283C32.1259 48.1277 31.7041 47.6864 31.3841 47.1046C31.0738 46.5228 30.9187 45.7956 30.9187 44.9228C30.9187 44.0501 31.069 43.3229 31.3696 42.741C31.6799 42.1592 32.0968 41.7229 32.6205 41.432C33.1538 41.1411 33.7502 40.9956 34.4095 40.9956C35.1659 40.9956 35.835 41.1605 36.4168 41.4901C36.9986 41.8198 37.4592 42.2804 37.7986 42.8719C38.138 43.4538 38.3077 44.1374 38.3077 44.9228C38.3077 45.7083 38.138 46.3968 37.7986 46.9883C37.4592 47.5798 36.9986 48.0404 36.4168 48.3701C35.835 48.6998 35.1659 48.8646 34.4095 48.8646ZM30.3223 51.5991V41.0683H31.6605V43.1483L31.5732 44.9374L31.7187 46.7265V51.5991H30.3223ZM34.2932 47.6428C34.7877 47.6428 35.2289 47.5313 35.6168 47.3083C36.0144 47.0852 36.3247 46.7701 36.5477 46.3628C36.7804 45.9459 36.8968 45.4659 36.8968 44.9228C36.8968 44.3701 36.7804 43.895 36.5477 43.4974C36.3247 43.0901 36.0144 42.775 35.6168 42.552C35.2289 42.3289 34.7877 42.2174 34.2932 42.2174C33.8083 42.2174 33.3671 42.3289 32.9696 42.552C32.5817 42.775 32.2714 43.0901 32.0387 43.4974C31.8156 43.895 31.7041 44.3701 31.7041 44.9228C31.7041 45.4659 31.8156 45.9459 32.0387 46.3628C32.2714 46.7701 32.5817 47.0852 32.9696 47.3083C33.3671 47.5313 33.8083 47.6428 34.2932 47.6428ZM44.9926 48.7773V47.1483L44.9199 46.8428V44.0647C44.9199 43.4732 44.7453 43.0174 44.3963 42.6974C44.0569 42.3677 43.5429 42.2029 42.8545 42.2029C42.3987 42.2029 41.9526 42.2804 41.5163 42.4356C41.0799 42.581 40.7114 42.7798 40.4108 43.0319L39.829 41.9847C40.2266 41.6647 40.7017 41.4223 41.2545 41.2574C41.8169 41.0829 42.4035 40.9956 43.0144 40.9956C44.0714 40.9956 44.8859 41.2526 45.4581 41.7665C46.0302 42.2804 46.3162 43.0659 46.3162 44.1228V48.7773H44.9926ZM42.4617 48.8646C41.8896 48.8646 41.3854 48.7676 40.949 48.5737C40.5224 48.3798 40.1927 48.1131 39.9599 47.7737C39.7272 47.4246 39.6108 47.0319 39.6108 46.5955C39.6108 46.1786 39.7078 45.8004 39.9018 45.461C40.1054 45.1216 40.4302 44.8501 40.8763 44.6465C41.332 44.4428 41.9429 44.341 42.709 44.341H45.1526V45.3447H42.7672C42.069 45.3447 41.5987 45.461 41.3563 45.6937C41.1139 45.9265 40.9927 46.2077 40.9927 46.5374C40.9927 46.9155 41.143 47.221 41.4436 47.4537C41.7442 47.6767 42.1611 47.7883 42.6945 47.7883C43.2181 47.7883 43.6738 47.6719 44.0617 47.4392C44.4593 47.2065 44.7453 46.8671 44.9199 46.421L45.1962 47.381C45.012 47.8367 44.6872 48.2004 44.2217 48.4719C43.7563 48.7337 43.1696 48.8646 42.4617 48.8646ZM48.8306 48.7773V41.0683H50.227V44.341H54.6197V41.0683H56.016V48.7773H54.6197V45.5483H50.227V48.7773H48.8306ZM62.0911 48.8646C61.3056 48.8646 60.6026 48.6949 59.982 48.3555C59.3711 48.0161 58.8911 47.5507 58.542 46.9592C58.1929 46.3677 58.0184 45.6889 58.0184 44.9228C58.0184 44.1568 58.1929 43.478 58.542 42.8865C58.8911 42.295 59.3711 41.8344 59.982 41.5047C60.6026 41.1653 61.3056 40.9956 62.0911 40.9956C62.7892 40.9956 63.4098 41.1362 63.9529 41.4174C64.5056 41.6889 64.9323 42.0962 65.2329 42.6392L64.171 43.3229C63.9189 42.9447 63.6086 42.6683 63.2401 42.4938C62.8814 42.3095 62.4935 42.2174 62.0765 42.2174C61.5723 42.2174 61.1214 42.3289 60.7238 42.552C60.3262 42.775 60.0111 43.0901 59.7784 43.4974C59.5456 43.895 59.4293 44.3701 59.4293 44.9228C59.4293 45.4756 59.5456 45.9556 59.7784 46.3628C60.0111 46.7701 60.3262 47.0852 60.7238 47.3083C61.1214 47.5313 61.5723 47.6428 62.0765 47.6428C62.4935 47.6428 62.8814 47.5555 63.2401 47.381C63.6086 47.1968 63.9189 46.9155 64.171 46.5374L65.2329 47.2065C64.9323 47.7398 64.5056 48.1519 63.9529 48.4428C63.4098 48.724 62.7892 48.8646 62.0911 48.8646ZM67.0407 48.7773V41.0683H74.1824V48.7773H72.7861V41.9411L73.1206 42.2901H68.1025L68.437 41.9411V48.7773H67.0407ZM80.1861 48.8646C79.4104 48.8646 78.7219 48.6949 78.1207 48.3555C77.5195 48.0161 77.0443 47.5507 76.6952 46.9592C76.3461 46.358 76.1716 45.6792 76.1716 44.9228C76.1716 44.1568 76.3461 43.478 76.6952 42.8865C77.0443 42.295 77.5195 41.8344 78.1207 41.5047C78.7219 41.1653 79.4104 40.9956 80.1861 40.9956C80.9522 40.9956 81.6358 41.1653 82.237 41.5047C82.8479 41.8344 83.323 42.295 83.6624 42.8865C84.0115 43.4683 84.1861 44.1471 84.1861 44.9228C84.1861 45.6889 84.0115 46.3677 83.6624 46.9592C83.323 47.5507 82.8479 48.0161 82.237 48.3555C81.6358 48.6949 80.9522 48.8646 80.1861 48.8646ZM80.1861 47.6428C80.6807 47.6428 81.1219 47.5313 81.5097 47.3083C81.9073 47.0852 82.2176 46.7701 82.4406 46.3628C82.6637 45.9459 82.7752 45.4659 82.7752 44.9228C82.7752 44.3701 82.6637 43.895 82.4406 43.4974C82.2176 43.0901 81.9073 42.775 81.5097 42.552C81.1219 42.3289 80.6807 42.2174 80.1861 42.2174C79.6916 42.2174 79.2504 42.3289 78.8625 42.552C78.4746 42.775 78.1643 43.0901 77.9316 43.4974C77.6989 43.895 77.5825 44.3701 77.5825 44.9228C77.5825 45.4659 77.6989 45.9459 77.9316 46.3628C78.1643 46.7701 78.4746 47.0852 78.8625 47.3083C79.2504 47.5313 79.6916 47.6428 80.1861 47.6428ZM90.2896 48.8646C89.6497 48.8646 89.063 48.7192 88.5297 48.4283C88.006 48.1277 87.5842 47.6864 87.2642 47.1046C86.9539 46.5228 86.7988 45.7956 86.7988 44.9228C86.7988 44.0501 86.9491 43.3229 87.2497 42.741C87.56 42.1592 87.9769 41.7229 88.5006 41.432C89.0339 41.1411 89.6303 40.9956 90.2896 40.9956C91.046 40.9956 91.7151 41.1605 92.2969 41.4901C92.8787 41.8198 93.3393 42.2804 93.6787 42.8719C94.0181 43.4538 94.1878 44.1374 94.1878 44.9228C94.1878 45.7083 94.0181 46.3968 93.6787 46.9883C93.3393 47.5798 92.8787 48.0404 92.2969 48.3701C91.7151 48.6998 91.046 48.8646 90.2896 48.8646ZM86.2024 51.5991V41.0683H87.5406V43.1483L87.4533 44.9374L87.5988 46.7265V51.5991H86.2024ZM90.1733 47.6428C90.6678 47.6428 91.109 47.5313 91.4969 47.3083C91.8945 47.0852 92.2048 46.7701 92.4278 46.3628C92.6605 45.9459 92.7769 45.4659 92.7769 44.9228C92.7769 44.3701 92.6605 43.895 92.4278 43.4974C92.2048 43.0901 91.8945 42.775 91.4969 42.552C91.109 42.3289 90.6678 42.2174 90.1733 42.2174C89.6884 42.2174 89.2472 42.3289 88.8497 42.552C88.4618 42.775 88.1515 43.0901 87.9188 43.4974C87.6957 43.895 87.5842 44.3701 87.5842 44.9228C87.5842 45.4659 87.6957 45.9459 87.9188 46.3628C88.1515 46.7701 88.4618 47.0852 88.8497 47.3083C89.2472 47.5313 89.6884 47.6428 90.1733 47.6428ZM97.4597 48.7773V41.9265L97.8088 42.2901H94.6379V41.0683H101.678V42.2901H98.5215L98.856 41.9265V48.7773H97.4597ZM103.106 48.7773V41.0683H104.502V44.341H108.895V41.0683H110.291V48.7773H108.895V45.5483H104.502V48.7773H103.106ZM116.308 48.8646C115.532 48.8646 114.844 48.6949 114.242 48.3555C113.641 48.0161 113.166 47.5507 112.817 46.9592C112.468 46.358 112.293 45.6792 112.293 44.9228C112.293 44.1568 112.468 43.478 112.817 42.8865C113.166 42.295 113.641 41.8344 114.242 41.5047C114.844 41.1653 115.532 40.9956 116.308 40.9956C117.074 40.9956 117.758 41.1653 118.359 41.5047C118.97 41.8344 119.445 42.295 119.784 42.8865C120.133 43.4683 120.308 44.1471 120.308 44.9228C120.308 45.6889 120.133 46.3677 119.784 46.9592C119.445 47.5507 118.97 48.0161 118.359 48.3555C117.758 48.6949 117.074 48.8646 116.308 48.8646ZM116.308 47.6428C116.802 47.6428 117.244 47.5313 117.632 47.3083C118.029 47.0852 118.339 46.7701 118.562 46.3628C118.785 45.9459 118.897 45.4659 118.897 44.9228C118.897 44.3701 118.785 43.895 118.562 43.4974C118.339 43.0901 118.029 42.775 117.632 42.552C117.244 42.3289 116.802 42.2174 116.308 42.2174C115.813 42.2174 115.372 42.3289 114.984 42.552C114.596 42.775 114.286 43.0901 114.053 43.4974C113.821 43.895 113.704 44.3701 113.704 44.9228C113.704 45.4659 113.821 45.9459 114.053 46.3628C114.286 46.7701 114.596 47.0852 114.984 47.3083C115.372 47.5313 115.813 47.6428 116.308 47.6428ZM125.757 48.8646C124.933 48.8646 124.205 48.6949 123.575 48.3555C122.954 48.0161 122.47 47.5507 122.121 46.9592C121.781 46.3677 121.611 45.6889 121.611 44.9228C121.611 44.1568 121.776 43.478 122.106 42.8865C122.445 42.295 122.906 41.8344 123.488 41.5047C124.079 41.1653 124.744 40.9956 125.481 40.9956C126.227 40.9956 126.887 41.1605 127.459 41.4901C128.031 41.8198 128.477 42.2853 128.797 42.8865C129.127 43.478 129.291 44.1713 129.291 44.9665C129.291 45.0247 129.287 45.0925 129.277 45.1701C129.277 45.2477 129.272 45.3204 129.262 45.3883H122.702V44.3847H128.535L127.968 44.7337C127.977 44.2392 127.876 43.798 127.662 43.4101C127.449 43.0223 127.153 42.7216 126.775 42.5083C126.407 42.2853 125.975 42.1738 125.481 42.1738C124.996 42.1738 124.564 42.2853 124.186 42.5083C123.808 42.7216 123.512 43.0271 123.299 43.4247C123.085 43.8125 122.979 44.2586 122.979 44.7628V44.9956C122.979 45.5095 123.095 45.9701 123.328 46.3774C123.57 46.7749 123.905 47.0852 124.331 47.3083C124.758 47.5313 125.248 47.6428 125.801 47.6428C126.256 47.6428 126.668 47.5652 127.037 47.4101C127.415 47.2549 127.745 47.0222 128.026 46.7119L128.797 47.6137C128.448 48.021 128.011 48.3313 127.488 48.5446C126.974 48.758 126.397 48.8646 125.757 48.8646ZM134.142 48.7773L137.458 44.4719L137.444 45.1847L134.287 41.0683H135.844L138.258 44.2392H137.662L140.077 41.0683H141.604L138.404 45.2137L138.418 44.4719L141.764 48.7773H140.178L137.633 45.4028L138.2 45.4901L135.698 48.7773H134.142ZM146.279 48.8646C145.503 48.8646 144.815 48.6949 144.214 48.3555C143.613 48.0161 143.137 47.5507 142.788 46.9592C142.439 46.358 142.265 45.6792 142.265 44.9228C142.265 44.1568 142.439 43.478 142.788 42.8865C143.137 42.295 143.613 41.8344 144.214 41.5047C144.815 41.1653 145.503 40.9956 146.279 40.9956C147.045 40.9956 147.729 41.1653 148.33 41.5047C148.941 41.8344 149.416 42.295 149.756 42.8865C150.105 43.4683 150.279 44.1471 150.279 44.9228C150.279 45.6889 150.105 46.3677 149.756 46.9592C149.416 47.5507 148.941 48.0161 148.33 48.3555C147.729 48.6949 147.045 48.8646 146.279 48.8646ZM146.279 47.6428C146.774 47.6428 147.215 47.5313 147.603 47.3083C148 47.0852 148.311 46.7701 148.534 46.3628C148.757 45.9459 148.868 45.4659 148.868 44.9228C148.868 44.3701 148.757 43.895 148.534 43.4974C148.311 43.0901 148 42.775 147.603 42.552C147.215 42.3289 146.774 42.2174 146.279 42.2174C145.785 42.2174 145.343 42.3289 144.956 42.552C144.568 42.775 144.257 43.0901 144.025 43.4974C143.792 43.895 143.676 44.3701 143.676 44.9228C143.676 45.4659 143.792 45.9459 144.025 46.3628C144.257 46.7701 144.568 47.0852 144.956 47.3083C145.343 47.5313 145.785 47.6428 146.279 47.6428ZM150.959 48.7628L151.046 47.5846C151.114 47.5943 151.177 47.604 151.235 47.6137C151.293 47.6234 151.347 47.6283 151.395 47.6283C151.705 47.6283 151.948 47.5216 152.122 47.3083C152.307 47.0949 152.442 46.8137 152.53 46.4646C152.617 46.1059 152.68 45.7034 152.719 45.2574C152.757 44.8113 152.787 44.3653 152.806 43.9192L152.937 41.0683H158.857V48.7773H157.46V41.8829L157.795 42.2901H153.839L154.159 41.8683L154.057 44.0065C154.028 44.6853 153.974 45.3204 153.897 45.9119C153.819 46.5034 153.698 47.0222 153.533 47.4683C153.378 47.9143 153.16 48.2634 152.879 48.5155C152.607 48.7676 152.253 48.8937 151.817 48.8937C151.691 48.8937 151.555 48.8792 151.41 48.8501C151.274 48.8307 151.124 48.8016 150.959 48.7628ZM164.859 48.8646C164.083 48.8646 163.394 48.6949 162.793 48.3555C162.192 48.0161 161.717 47.5507 161.368 46.9592C161.019 46.358 160.844 45.6792 160.844 44.9228C160.844 44.1568 161.019 43.478 161.368 42.8865C161.717 42.295 162.192 41.8344 162.793 41.5047C163.394 41.1653 164.083 40.9956 164.859 40.9956C165.625 40.9956 166.308 41.1653 166.909 41.5047C167.52 41.8344 167.995 42.295 168.335 42.8865C168.684 43.4683 168.858 44.1471 168.858 44.9228C168.858 45.6889 168.684 46.3677 168.335 46.9592C167.995 47.5507 167.52 48.0161 166.909 48.3555C166.308 48.6949 165.625 48.8646 164.859 48.8646ZM164.859 47.6428C165.353 47.6428 165.794 47.5313 166.182 47.3083C166.58 47.0852 166.89 46.7701 167.113 46.3628C167.336 45.9459 167.448 45.4659 167.448 44.9228C167.448 44.3701 167.336 43.895 167.113 43.4974C166.89 43.0901 166.58 42.775 166.182 42.552C165.794 42.3289 165.353 42.2174 164.859 42.2174C164.364 42.2174 163.923 42.3289 163.535 42.552C163.147 42.775 162.837 43.0901 162.604 43.4974C162.371 43.895 162.255 44.3701 162.255 44.9228C162.255 45.4659 162.371 45.9459 162.604 46.3628C162.837 46.7701 163.147 47.0852 163.535 47.3083C163.923 47.5313 164.364 47.6428 164.859 47.6428ZM176.083 48.1228V42.2901H172.738L172.665 43.7738C172.646 44.2586 172.612 44.7289 172.563 45.1847C172.525 45.6307 172.457 46.0428 172.36 46.421C172.273 46.7992 172.142 47.1095 171.967 47.3519C171.793 47.5943 171.56 47.7446 171.269 47.8028L169.887 47.5555C170.188 47.5652 170.43 47.4683 170.614 47.2646C170.799 47.0513 170.939 46.7604 171.036 46.3919C171.143 46.0234 171.22 45.6065 171.269 45.141C171.317 44.6659 171.356 44.1762 171.385 43.6719L171.502 41.0683H177.48V48.1228H176.083ZM169.582 50.5664V47.5555H178.658V50.5664H177.349V48.7773H170.905V50.5664H169.582ZM180.477 48.7773V41.0683H181.873V46.6828L186.601 41.0683H187.866V48.7773H186.47V43.1629L181.757 48.7773H180.477ZM189.296 48.7628L189.384 47.5846C189.451 47.5943 189.515 47.604 189.573 47.6137C189.631 47.6234 189.684 47.6283 189.733 47.6283C190.043 47.6283 190.285 47.5216 190.46 47.3083C190.644 47.0949 190.78 46.8137 190.867 46.4646C190.955 46.1059 191.018 45.7034 191.056 45.2574C191.095 44.8113 191.124 44.3653 191.144 43.9192L191.275 41.0683H197.194V48.7773H195.798V41.8829L196.133 42.2901H192.176L192.496 41.8683L192.394 44.0065C192.365 44.6853 192.312 45.3204 192.234 45.9119C192.157 46.5034 192.036 47.0222 191.871 47.4683C191.716 47.9143 191.498 48.2634 191.216 48.5155C190.945 48.7676 190.591 48.8937 190.155 48.8937C190.028 48.8937 189.893 48.8792 189.747 48.8501C189.611 48.8307 189.461 48.8016 189.296 48.7628ZM203.458 43.6865C204.437 43.6962 205.184 43.9192 205.698 44.3556C206.212 44.7919 206.469 45.4077 206.469 46.2028C206.469 47.0368 206.188 47.6816 205.625 48.1374C205.063 48.5834 204.268 48.8016 203.24 48.7919L199.894 48.7773V41.0683H201.291V43.6719L203.458 43.6865ZM203.123 47.7301C203.754 47.7398 204.229 47.6137 204.549 47.3519C204.879 47.0901 205.043 46.7022 205.043 46.1883C205.043 45.684 204.883 45.3156 204.563 45.0828C204.243 44.8501 203.763 44.7289 203.123 44.7192L201.291 44.6901V47.7155L203.123 47.7301ZM208.261 48.7773V41.0683H209.657V44.341H214.05V41.0683H215.446V48.7773H214.05V45.5483H209.657V48.7773H208.261ZM221.463 48.8646C220.687 48.8646 219.999 48.6949 219.398 48.3555C218.796 48.0161 218.321 47.5507 217.972 46.9592C217.623 46.358 217.449 45.6792 217.449 44.9228C217.449 44.1568 217.623 43.478 217.972 42.8865C218.321 42.295 218.796 41.8344 219.398 41.5047C219.999 41.1653 220.687 40.9956 221.463 40.9956C222.229 40.9956 222.913 41.1653 223.514 41.5047C224.125 41.8344 224.6 42.295 224.939 42.8865C225.288 43.4683 225.463 44.1471 225.463 44.9228C225.463 45.6889 225.288 46.3677 224.939 46.9592C224.6 47.5507 224.125 48.0161 223.514 48.3555C222.913 48.6949 222.229 48.8646 221.463 48.8646ZM221.463 47.6428C221.958 47.6428 222.399 47.5313 222.787 47.3083C223.184 47.0852 223.495 46.7701 223.718 46.3628C223.941 45.9459 224.052 45.4659 224.052 44.9228C224.052 44.3701 223.941 43.895 223.718 43.4974C223.495 43.0901 223.184 42.775 222.787 42.552C222.399 42.3289 221.958 42.2174 221.463 42.2174C220.969 42.2174 220.527 42.3289 220.139 42.552C219.752 42.775 219.441 43.0901 219.209 43.4974C218.976 43.895 218.859 44.3701 218.859 44.9228C218.859 45.4659 218.976 45.9459 219.209 46.3628C219.441 46.7701 219.752 47.0852 220.139 47.3083C220.527 47.5313 220.969 47.6428 221.463 47.6428ZM230.912 48.8646C230.088 48.8646 229.361 48.6949 228.73 48.3555C228.11 48.0161 227.625 47.5507 227.276 46.9592C226.936 46.3677 226.767 45.6889 226.767 44.9228C226.767 44.1568 226.931 43.478 227.261 42.8865C227.601 42.295 228.061 41.8344 228.643 41.5047C229.234 41.1653 229.899 40.9956 230.636 40.9956C231.382 40.9956 232.042 41.1605 232.614 41.4901C233.186 41.8198 233.632 42.2853 233.952 42.8865C234.282 43.478 234.447 44.1713 234.447 44.9665C234.447 45.0247 234.442 45.0925 234.432 45.1701C234.432 45.2477 234.427 45.3204 234.417 45.3883H227.858V44.3847H233.69L233.123 44.7337C233.133 44.2392 233.031 43.798 232.817 43.4101C232.604 43.0223 232.308 42.7216 231.93 42.5083C231.562 42.2853 231.13 42.1738 230.636 42.1738C230.151 42.1738 229.719 42.2853 229.341 42.5083C228.963 42.7216 228.667 43.0271 228.454 43.4247C228.241 43.8125 228.134 44.2586 228.134 44.7628V44.9956C228.134 45.5095 228.25 45.9701 228.483 46.3774C228.725 46.7749 229.06 47.0852 229.487 47.3083C229.913 47.5313 230.403 47.6428 230.956 47.6428C231.411 47.6428 231.824 47.5652 232.192 47.4101C232.57 47.2549 232.9 47.0222 233.181 46.7119L233.952 47.6137C233.603 48.021 233.167 48.3313 232.643 48.5446C232.129 48.758 231.552 48.8646 230.912 48.8646ZM243.821 48.8646C243.045 48.8646 242.357 48.6949 241.755 48.3555C241.154 48.0161 240.679 47.5507 240.33 46.9592C239.981 46.358 239.806 45.6792 239.806 44.9228C239.806 44.1568 239.981 43.478 240.33 42.8865C240.679 42.295 241.154 41.8344 241.755 41.5047C242.357 41.1653 243.045 40.9956 243.821 40.9956C244.587 40.9956 245.27 41.1653 245.872 41.5047C246.483 41.8344 246.958 42.295 247.297 42.8865C247.646 43.4683 247.821 44.1471 247.821 44.9228C247.821 45.6889 247.646 46.3677 247.297 46.9592C246.958 47.5507 246.483 48.0161 245.872 48.3555C245.27 48.6949 244.587 48.8646 243.821 48.8646ZM243.821 47.6428C244.315 47.6428 244.757 47.5313 245.144 47.3083C245.542 47.0852 245.852 46.7701 246.075 46.3628C246.298 45.9459 246.41 45.4659 246.41 44.9228C246.41 44.3701 246.298 43.895 246.075 43.4974C245.852 43.0901 245.542 42.775 245.144 42.552C244.757 42.3289 244.315 42.2174 243.821 42.2174C243.326 42.2174 242.885 42.3289 242.497 42.552C242.109 42.775 241.799 43.0901 241.566 43.4974C241.334 43.895 241.217 44.3701 241.217 44.9228C241.217 45.4659 241.334 45.9459 241.566 46.3628C241.799 46.7701 242.109 47.0852 242.497 47.3083C242.885 47.5313 243.326 47.6428 243.821 47.6428ZM253.401 48.8937C252.761 48.8937 252.193 48.7919 251.699 48.5883C251.214 48.3846 250.797 48.084 250.448 47.6864C250.099 47.2792 249.832 46.7701 249.648 46.1592C249.473 45.5386 249.386 44.8113 249.386 43.9774C249.386 43.318 249.444 42.7265 249.561 42.2029C249.677 41.6792 249.842 41.2138 250.055 40.8065C250.278 40.3992 250.55 40.0453 250.87 39.7447C251.199 39.4441 251.568 39.1968 251.975 39.0029C252.392 38.7993 252.848 38.6441 253.343 38.5374L256.862 37.752L257.066 39.0465L253.823 39.7447C253.629 39.7835 253.396 39.8417 253.124 39.9193C252.853 39.9968 252.576 40.118 252.295 40.2829C252.014 40.438 251.752 40.6562 251.51 40.9374C251.267 41.2186 251.073 41.5871 250.928 42.0429C250.783 42.4889 250.71 43.0416 250.71 43.701C250.71 43.8853 250.715 44.0259 250.724 44.1228C250.734 44.2198 250.744 44.3168 250.753 44.4138C250.773 44.5107 250.787 44.6562 250.797 44.8501L250.215 44.2538C250.37 43.7204 250.618 43.255 250.957 42.8574C251.296 42.4598 251.704 42.1544 252.179 41.9411C252.664 41.718 253.192 41.6065 253.764 41.6065C254.482 41.6065 255.117 41.7617 255.67 42.072C256.232 42.3823 256.673 42.8089 256.993 43.3519C257.313 43.895 257.473 44.5156 257.473 45.2137C257.473 45.9216 257.304 46.5568 256.964 47.1192C256.635 47.6719 256.164 48.1083 255.553 48.4283C254.942 48.7386 254.225 48.8937 253.401 48.8937ZM253.532 47.7301C254.026 47.7301 254.462 47.6234 254.841 47.4101C255.219 47.1871 255.515 46.8913 255.728 46.5228C255.941 46.1446 256.048 45.7228 256.048 45.2574C256.048 44.7919 255.941 44.3798 255.728 44.021C255.515 43.6622 255.219 43.381 254.841 43.1774C254.462 42.9641 254.016 42.8574 253.503 42.8574C253.018 42.8574 252.581 42.9592 252.193 43.1629C251.806 43.3568 251.505 43.6332 251.292 43.9919C251.078 44.341 250.972 44.7483 250.972 45.2137C250.972 45.6792 251.078 46.1059 251.292 46.4937C251.515 46.8719 251.815 47.1725 252.193 47.3955C252.581 47.6186 253.027 47.7301 253.532 47.7301ZM262.769 48.8646C261.994 48.8646 261.305 48.6949 260.704 48.3555C260.103 48.0161 259.628 47.5507 259.279 46.9592C258.929 46.358 258.755 45.6792 258.755 44.9228C258.755 44.1568 258.929 43.478 259.279 42.8865C259.628 42.295 260.103 41.8344 260.704 41.5047C261.305 41.1653 261.994 40.9956 262.769 40.9956C263.536 40.9956 264.219 41.1653 264.82 41.5047C265.431 41.8344 265.906 42.295 266.246 42.8865C266.595 43.4683 266.769 44.1471 266.769 44.9228C266.769 45.6889 266.595 46.3677 266.246 46.9592C265.906 47.5507 265.431 48.0161 264.82 48.3555C264.219 48.6949 263.536 48.8646 262.769 48.8646ZM262.769 47.6428C263.264 47.6428 263.705 47.5313 264.093 47.3083C264.491 47.0852 264.801 46.7701 265.024 46.3628C265.247 45.9459 265.359 45.4659 265.359 44.9228C265.359 44.3701 265.247 43.895 265.024 43.4974C264.801 43.0901 264.491 42.775 264.093 42.552C263.705 42.3289 263.264 42.2174 262.769 42.2174C262.275 42.2174 261.834 42.3289 261.446 42.552C261.058 42.775 260.748 43.0901 260.515 43.4974C260.282 43.895 260.166 44.3701 260.166 44.9228C260.166 45.4659 260.282 45.9459 260.515 46.3628C260.748 46.7701 261.058 47.0852 261.446 47.3083C261.834 47.5313 262.275 47.6428 262.769 47.6428ZM272.873 48.8646C272.233 48.8646 271.646 48.7192 271.113 48.4283C270.589 48.1277 270.168 47.6864 269.848 47.1046C269.537 46.5228 269.382 45.7956 269.382 44.9228C269.382 44.0501 269.532 43.3229 269.833 42.741C270.143 42.1592 270.56 41.7229 271.084 41.432C271.617 41.1411 272.214 40.9956 272.873 40.9956C273.629 40.9956 274.298 41.1605 274.88 41.4901C275.462 41.8198 275.923 42.2804 276.262 42.8719C276.601 43.4538 276.771 44.1374 276.771 44.9228C276.771 45.7083 276.601 46.3968 276.262 46.9883C275.923 47.5798 275.462 48.0404 274.88 48.3701C274.298 48.6998 273.629 48.8646 272.873 48.8646ZM268.786 51.5991V41.0683H270.124V43.1483L270.037 44.9374L270.182 46.7265V51.5991H268.786ZM272.757 47.6428C273.251 47.6428 273.692 47.5313 274.08 47.3083C274.478 47.0852 274.788 46.7701 275.011 46.3628C275.244 45.9459 275.36 45.4659 275.36 44.9228C275.36 44.3701 275.244 43.895 275.011 43.4974C274.788 43.0901 274.478 42.775 274.08 42.552C273.692 42.3289 273.251 42.2174 272.757 42.2174C272.272 42.2174 271.831 42.3289 271.433 42.552C271.045 42.775 270.735 43.0901 270.502 43.4974C270.279 43.895 270.168 44.3701 270.168 44.9228C270.168 45.4659 270.279 45.9459 270.502 46.3628C270.735 46.7701 271.045 47.0852 271.433 47.3083C271.831 47.5313 272.272 47.6428 272.757 47.6428ZM278.98 51.6864C278.611 51.6864 278.252 51.6234 277.903 51.4973C277.554 51.381 277.253 51.2064 277.001 50.9737L277.598 49.9264C277.792 50.1107 278.005 50.2513 278.238 50.3482C278.47 50.4452 278.718 50.4937 278.98 50.4937C279.319 50.4937 279.6 50.4064 279.823 50.2319C280.046 50.0573 280.255 49.747 280.449 49.301L280.929 48.2392L281.074 48.0646L284.099 41.0683H285.467L281.729 49.5482C281.506 50.0913 281.253 50.5179 280.972 50.8282C280.701 51.1385 280.4 51.3567 280.07 51.4828C279.741 51.6185 279.377 51.6864 278.98 51.6864ZM280.812 49.0246L277.292 41.0683H278.747L281.743 47.9337L280.812 49.0246ZM291.764 48.1228V42.2901H288.419L288.346 43.7738C288.327 44.2586 288.293 44.7289 288.244 45.1847C288.205 45.6307 288.137 46.0428 288.04 46.421C287.953 46.7992 287.822 47.1095 287.648 47.3519C287.473 47.5943 287.24 47.7446 286.95 47.8028L285.568 47.5555C285.868 47.5652 286.111 47.4683 286.295 47.2646C286.479 47.0513 286.62 46.7604 286.717 46.3919C286.823 46.0234 286.901 45.6065 286.95 45.141C286.998 44.6659 287.037 44.1762 287.066 43.6719L287.182 41.0683H293.16V48.1228H291.764ZM285.262 50.5664V47.5555H294.339V50.5664H293.029V48.7773H286.586V50.5664H285.262ZM299.459 48.8646C298.684 48.8646 297.995 48.6949 297.394 48.3555C296.793 48.0161 296.318 47.5507 295.969 46.9592C295.619 46.358 295.445 45.6792 295.445 44.9228C295.445 44.1568 295.619 43.478 295.969 42.8865C296.318 42.295 296.793 41.8344 297.394 41.5047C297.995 41.1653 298.684 40.9956 299.459 40.9956C300.225 40.9956 300.909 41.1653 301.51 41.5047C302.121 41.8344 302.596 42.295 302.936 42.8865C303.285 43.4683 303.459 44.1471 303.459 44.9228C303.459 45.6889 303.285 46.3677 302.936 46.9592C302.596 47.5507 302.121 48.0161 301.51 48.3555C300.909 48.6949 300.225 48.8646 299.459 48.8646ZM299.459 47.6428C299.954 47.6428 300.395 47.5313 300.783 47.3083C301.181 47.0852 301.491 46.7701 301.714 46.3628C301.937 45.9459 302.048 45.4659 302.048 44.9228C302.048 44.3701 301.937 43.895 301.714 43.4974C301.491 43.0901 301.181 42.775 300.783 42.552C300.395 42.3289 299.954 42.2174 299.459 42.2174C298.965 42.2174 298.524 42.3289 298.136 42.552C297.748 42.775 297.438 43.0901 297.205 43.4974C296.972 43.895 296.856 44.3701 296.856 44.9228C296.856 45.4659 296.972 45.9459 297.205 46.3628C297.438 46.7701 297.748 47.0852 298.136 47.3083C298.524 47.5313 298.965 47.6428 299.459 47.6428ZM305.476 48.7773V41.0683H309.054C309.956 41.0683 310.664 41.2429 311.177 41.592C311.701 41.9314 311.963 42.4162 311.963 43.0465C311.963 43.6768 311.716 44.1665 311.221 44.5156C310.736 44.855 310.091 45.0247 309.287 45.0247L309.505 44.6465C310.426 44.6465 311.11 44.8162 311.556 45.1556C312.002 45.495 312.225 45.9943 312.225 46.6537C312.225 47.3228 311.973 47.8464 311.468 48.2246C310.974 48.5931 310.213 48.7773 309.185 48.7773H305.476ZM306.843 47.701H309.083C309.665 47.701 310.101 47.6137 310.392 47.4392C310.683 47.2549 310.828 46.964 310.828 46.5665C310.828 46.1592 310.693 45.8634 310.421 45.6792C310.159 45.4853 309.742 45.3883 309.17 45.3883H306.843V47.701ZM306.843 44.3847H308.938C309.471 44.3847 309.873 44.2877 310.145 44.0938C310.426 43.8901 310.567 43.6089 310.567 43.2501C310.567 42.8816 310.426 42.6053 310.145 42.421C309.873 42.2368 309.471 42.1447 308.938 42.1447H306.843V44.3847ZM319.137 48.7773V47.1483L319.065 46.8428V44.0647C319.065 43.4732 318.89 43.0174 318.541 42.6974C318.202 42.3677 317.688 42.2029 316.999 42.2029C316.544 42.2029 316.098 42.2804 315.661 42.4356C315.225 42.581 314.856 42.7798 314.556 43.0319L313.974 41.9847C314.371 41.6647 314.847 41.4223 315.399 41.2574C315.962 41.0829 316.548 40.9956 317.159 40.9956C318.216 40.9956 319.031 41.2526 319.603 41.7665C320.175 42.2804 320.461 43.0659 320.461 44.1228V48.7773H319.137ZM316.607 48.8646C316.034 48.8646 315.53 48.7676 315.094 48.5737C314.667 48.3798 314.338 48.1131 314.105 47.7737C313.872 47.4246 313.756 47.0319 313.756 46.5955C313.756 46.1786 313.853 45.8004 314.047 45.461C314.25 45.1216 314.575 44.8501 315.021 44.6465C315.477 44.4428 316.088 44.341 316.854 44.341H319.297V45.3447H316.912C316.214 45.3447 315.744 45.461 315.501 45.6937C315.259 45.9265 315.138 46.2077 315.138 46.5374C315.138 46.9155 315.288 47.221 315.588 47.4537C315.889 47.6767 316.306 47.7883 316.839 47.7883C317.363 47.7883 317.819 47.6719 318.207 47.4392C318.604 47.2065 318.89 46.8671 319.065 46.421L319.341 47.381C319.157 47.8367 318.832 48.2004 318.367 48.4719C317.901 48.7337 317.314 48.8646 316.607 48.8646ZM322.976 48.7773V41.0683H324.372V44.341H328.765V41.0683H330.161V48.7773H328.765V45.5483H324.372V48.7773H322.976ZM332.876 48.7773V41.0683H334.272V46.6828L339 41.0683H340.265V48.7773H338.869V43.1629L334.156 48.7773H332.876ZM346.408 48.8646C345.584 48.8646 344.857 48.6949 344.226 48.3555C343.606 48.0161 343.121 47.5507 342.772 46.9592C342.432 46.3677 342.263 45.6889 342.263 44.9228C342.263 44.1568 342.427 43.478 342.757 42.8865C343.097 42.295 343.557 41.8344 344.139 41.5047C344.73 41.1653 345.395 40.9956 346.132 40.9956C346.878 40.9956 347.538 41.1605 348.11 41.4901C348.682 41.8198 349.128 42.2853 349.448 42.8865C349.778 43.478 349.943 44.1713 349.943 44.9665C349.943 45.0247 349.938 45.0925 349.928 45.1701C349.928 45.2477 349.923 45.3204 349.913 45.3883H343.354V44.3847H349.186L348.619 44.7337C348.629 44.2392 348.527 43.798 348.313 43.4101C348.1 43.0223 347.804 42.7216 347.426 42.5083C347.058 42.2853 346.626 42.1738 346.132 42.1738C345.647 42.1738 345.215 42.2853 344.837 42.5083C344.459 42.7216 344.163 43.0271 343.95 43.4247C343.737 43.8125 343.63 44.2586 343.63 44.7628V44.9956C343.63 45.5095 343.746 45.9701 343.979 46.3774C344.221 46.7749 344.556 47.0852 344.983 47.3083C345.409 47.5313 345.899 47.6428 346.452 47.6428C346.907 47.6428 347.32 47.5652 347.688 47.4101C348.066 47.2549 348.396 47.0222 348.677 46.7119L349.448 47.6137C349.099 48.021 348.663 48.3313 348.139 48.5446C347.625 48.758 347.048 48.8646 346.408 48.8646ZM354.837 48.7773L359.448 38.5956H360.888L365.513 48.7773H363.986L359.869 39.4102H360.451L356.335 48.7773H354.837ZM356.8 46.2319L357.193 45.0683H362.924L363.346 46.2319H356.8ZM367.038 48.7773V41.0683H370.616C371.518 41.0683 372.225 41.2429 372.739 41.592C373.263 41.9314 373.525 42.4162 373.525 43.0465C373.525 43.6768 373.278 44.1665 372.783 44.5156C372.298 44.855 371.653 45.0247 370.848 45.0247L371.067 44.6465C371.988 44.6465 372.671 44.8162 373.118 45.1556C373.564 45.495 373.787 45.9943 373.787 46.6537C373.787 47.3228 373.534 47.8464 373.03 48.2246C372.536 48.5931 371.775 48.7773 370.747 48.7773H367.038ZM368.405 47.701H370.645C371.227 47.701 371.663 47.6137 371.954 47.4392C372.245 47.2549 372.39 46.964 372.39 46.5665C372.39 46.1592 372.255 45.8634 371.983 45.6792C371.721 45.4853 371.304 45.3883 370.732 45.3883H368.405V47.701ZM368.405 44.3847H370.499C371.033 44.3847 371.435 44.2877 371.707 44.0938C371.988 43.8901 372.128 43.6089 372.128 43.2501C372.128 42.8816 371.988 42.6053 371.707 42.421C371.435 42.2368 371.033 42.1447 370.499 42.1447H368.405V44.3847ZM377.499 48.7773V41.9265L377.849 42.2901H374.678V41.0683H381.718V42.2901H378.561L378.896 41.9265V48.7773H377.499ZM386.106 48.8646C385.33 48.8646 384.642 48.6949 384.041 48.3555C383.44 48.0161 382.964 47.5507 382.615 46.9592C382.266 46.358 382.092 45.6792 382.092 44.9228C382.092 44.1568 382.266 43.478 382.615 42.8865C382.964 42.295 383.44 41.8344 384.041 41.5047C384.642 41.1653 385.33 40.9956 386.106 40.9956C386.872 40.9956 387.556 41.1653 388.157 41.5047C388.768 41.8344 389.243 42.295 389.583 42.8865C389.932 43.4683 390.106 44.1471 390.106 44.9228C390.106 45.6889 389.932 46.3677 389.583 46.9592C389.243 47.5507 388.768 48.0161 388.157 48.3555C387.556 48.6949 386.872 48.8646 386.106 48.8646ZM386.106 47.6428C386.601 47.6428 387.042 47.5313 387.43 47.3083C387.827 47.0852 388.138 46.7701 388.361 46.3628C388.584 45.9459 388.695 45.4659 388.695 44.9228C388.695 44.3701 388.584 43.895 388.361 43.4974C388.138 43.0901 387.827 42.775 387.43 42.552C387.042 42.3289 386.601 42.2174 386.106 42.2174C385.612 42.2174 385.171 42.3289 384.783 42.552C384.395 42.775 384.084 43.0901 383.852 43.4974C383.619 43.895 383.503 44.3701 383.503 44.9228C383.503 45.4659 383.619 45.9459 383.852 46.3628C384.084 46.7701 384.395 47.0852 384.783 47.3083C385.171 47.5313 385.612 47.6428 386.106 47.6428ZM391.108 38.5956H392.781L395.443 42.3192L398.104 38.5956H399.806L396.359 43.4829L400.083 48.7773H398.366L395.443 44.7192L392.534 48.7773H390.861L394.57 43.541L391.108 38.5956ZM404.544 48.8646C403.768 48.8646 403.079 48.6949 402.478 48.3555C401.877 48.0161 401.402 47.5507 401.053 46.9592C400.704 46.358 400.529 45.6792 400.529 44.9228C400.529 44.1568 400.704 43.478 401.053 42.8865C401.402 42.295 401.877 41.8344 402.478 41.5047C403.079 41.1653 403.768 40.9956 404.544 40.9956C405.31 40.9956 405.993 41.1653 406.594 41.5047C407.205 41.8344 407.681 42.295 408.02 42.8865C408.369 43.4683 408.544 44.1471 408.544 44.9228C408.544 45.6889 408.369 46.3677 408.02 46.9592C407.681 47.5507 407.205 48.0161 406.594 48.3555C405.993 48.6949 405.31 48.8646 404.544 48.8646ZM404.544 47.6428C405.038 47.6428 405.479 47.5313 405.867 47.3083C406.265 47.0852 406.575 46.7701 406.798 46.3628C407.021 45.9459 407.133 45.4659 407.133 44.9228C407.133 44.3701 407.021 43.895 406.798 43.4974C406.575 43.0901 406.265 42.775 405.867 42.552C405.479 42.3289 405.038 42.2174 404.544 42.2174C404.049 42.2174 403.608 42.3289 403.22 42.552C402.832 42.775 402.522 43.0901 402.289 43.4974C402.056 43.895 401.94 44.3701 401.94 44.9228C401.94 45.4659 402.056 45.9459 402.289 46.3628C402.522 46.7701 402.832 47.0852 403.22 47.3083C403.608 47.5313 404.049 47.6428 404.544 47.6428ZM409.223 48.7628L409.31 47.5846C409.378 47.5943 409.441 47.604 409.499 47.6137C409.558 47.6234 409.611 47.6283 409.659 47.6283C409.97 47.6283 410.212 47.5216 410.387 47.3083C410.571 47.0949 410.707 46.8137 410.794 46.4646C410.881 46.1059 410.944 45.7034 410.983 45.2574C411.022 44.8113 411.051 44.3653 411.07 43.9192L411.201 41.0683H417.121V48.7773H415.725V41.8829L416.059 42.2901H412.103L412.423 41.8683L412.321 44.0065C412.292 44.6853 412.239 45.3204 412.161 45.9119C412.084 46.5034 411.962 47.0222 411.798 47.4683C411.642 47.9143 411.424 48.2634 411.143 48.5155C410.872 48.7676 410.518 48.8937 410.081 48.8937C409.955 48.8937 409.819 48.8792 409.674 48.8501C409.538 48.8307 409.388 48.8016 409.223 48.7628ZM423.123 48.8646C422.347 48.8646 421.659 48.6949 421.057 48.3555C420.456 48.0161 419.981 47.5507 419.632 46.9592C419.283 46.358 419.108 45.6792 419.108 44.9228C419.108 44.1568 419.283 43.478 419.632 42.8865C419.981 42.295 420.456 41.8344 421.057 41.5047C421.659 41.1653 422.347 40.9956 423.123 40.9956C423.889 40.9956 424.573 41.1653 425.174 41.5047C425.785 41.8344 426.26 42.295 426.599 42.8865C426.948 43.4683 427.123 44.1471 427.123 44.9228C427.123 45.6889 426.948 46.3677 426.599 46.9592C426.26 47.5507 425.785 48.0161 425.174 48.3555C424.573 48.6949 423.889 48.8646 423.123 48.8646ZM423.123 47.6428C423.617 47.6428 424.059 47.5313 424.447 47.3083C424.844 47.0852 425.154 46.7701 425.377 46.3628C425.6 45.9459 425.712 45.4659 425.712 44.9228C425.712 44.3701 425.6 43.895 425.377 43.4974C425.154 43.0901 424.844 42.775 424.447 42.552C424.059 42.3289 423.617 42.2174 423.123 42.2174C422.628 42.2174 422.187 42.3289 421.799 42.552C421.411 42.775 421.101 43.0901 420.868 43.4974C420.636 43.895 420.519 44.3701 420.519 44.9228C420.519 45.4659 420.636 45.9459 420.868 46.3628C421.101 46.7701 421.411 47.0852 421.799 47.3083C422.187 47.5313 422.628 47.6428 423.123 47.6428ZM434.348 48.1228V42.2901H431.002L430.93 43.7738C430.91 44.2586 430.876 44.7289 430.828 45.1847C430.789 45.6307 430.721 46.0428 430.624 46.421C430.537 46.7992 430.406 47.1095 430.231 47.3519C430.057 47.5943 429.824 47.7446 429.533 47.8028L428.151 47.5555C428.452 47.5652 428.695 47.4683 428.879 47.2646C429.063 47.0513 429.204 46.7604 429.301 46.3919C429.407 46.0234 429.485 45.6065 429.533 45.141C429.582 44.6659 429.621 44.1762 429.65 43.6719L429.766 41.0683H435.744V48.1228H434.348ZM427.846 50.5664V47.5555H436.922V50.5664H435.613V48.7773H429.17V50.5664H427.846Z" fill="black"/>
<path d="M32.4264 101.973C31.3646 101.973 30.31 101.835 29.2628 101.558C28.2301 101.267 27.3428 100.86 26.601 100.336L27.9973 97.631C28.5792 98.0528 29.2482 98.3873 30.0046 98.6346C30.7755 98.8819 31.5537 99.0055 32.3391 99.0055C33.2264 99.0055 33.9246 98.831 34.4336 98.4819C34.9427 98.1328 35.1973 97.6455 35.1973 97.0201C35.1973 96.6274 35.0955 96.2783 34.8918 95.9728C34.6882 95.6674 34.3245 95.4346 33.8009 95.2746C33.2918 95.1146 32.5718 95.0346 31.6409 95.0346H27.7355L28.521 86.4384H37.8372V89.2747H29.7864L31.6191 87.6602L31.0737 93.791L29.241 92.1765H32.47C33.9827 92.1765 35.1973 92.3874 36.1136 92.8092C37.0445 93.2165 37.7209 93.7765 38.1427 94.4892C38.5645 95.2019 38.7754 96.0092 38.7754 96.911C38.7754 97.8128 38.55 98.6492 38.0991 99.4201C37.6482 100.176 36.95 100.795 36.0045 101.275C35.0736 101.74 33.8809 101.973 32.4264 101.973ZM40.3403 105.071L41.7803 99.8346L42.2603 101.798C41.6349 101.798 41.1185 101.616 40.7112 101.253C40.3185 100.889 40.1222 100.387 40.1222 99.7473C40.1222 99.1073 40.3258 98.5982 40.7331 98.2201C41.1403 97.8419 41.6421 97.6528 42.2385 97.6528C42.8494 97.6528 43.3512 97.8492 43.7439 98.2419C44.1367 98.6201 44.333 99.1219 44.333 99.7473C44.333 99.9364 44.3185 100.125 44.2894 100.315C44.2603 100.489 44.2021 100.707 44.1148 100.969C44.0421 101.216 43.9185 101.536 43.7439 101.929L42.5003 105.071H40.3403ZM52.188 101.973C50.9371 101.973 49.8171 101.667 48.828 101.056C47.839 100.431 47.0608 99.5291 46.4935 98.351C45.9262 97.1728 45.6426 95.7474 45.6426 94.0747C45.6426 92.4019 45.9262 90.9765 46.4935 89.7983C47.0608 88.6202 47.839 87.7256 48.828 87.1147C49.8171 86.4893 50.9371 86.1766 52.188 86.1766C53.4534 86.1766 54.5734 86.4893 55.548 87.1147C56.537 87.7256 57.3152 88.6202 57.8825 89.7983C58.4498 90.9765 58.7334 92.4019 58.7334 94.0747C58.7334 95.7474 58.4498 97.1728 57.8825 98.351C57.3152 99.5291 56.537 100.431 55.548 101.056C54.5734 101.667 53.4534 101.973 52.188 101.973ZM52.188 98.9837C52.7844 98.9837 53.3007 98.8164 53.7371 98.4819C54.188 98.1473 54.5371 97.6164 54.7843 96.8892C55.0462 96.1619 55.1771 95.2237 55.1771 94.0747C55.1771 92.9256 55.0462 91.9874 54.7843 91.2601C54.5371 90.5329 54.188 90.002 53.7371 89.6674C53.3007 89.3329 52.7844 89.1656 52.188 89.1656C51.6062 89.1656 51.0898 89.3329 50.6389 89.6674C50.2026 90.002 49.8535 90.5329 49.5917 91.2601C49.3444 91.9874 49.2208 92.9256 49.2208 94.0747C49.2208 95.2237 49.3444 96.1619 49.5917 96.8892C49.8535 97.6164 50.2026 98.1473 50.6389 98.4819C51.0898 98.8164 51.6062 98.9837 52.188 98.9837Z" fill="black"/>
<rect x="116.276" y="159.597" width="462.449" height="53.922" rx="12" fill="#BDBDBD"/>
<path d="M27.9683 290.428V280.246H29.4082V288.1L35.43 280.246H36.7682V290.428H35.3427V282.588L29.3064 290.428H27.9683ZM39.7098 290.428V282.719H43.288C44.1898 282.719 44.8977 282.893 45.4116 283.242C45.9352 283.582 46.197 284.067 46.197 284.697C46.197 285.327 45.9498 285.817 45.4552 286.166C44.9704 286.505 44.3255 286.675 43.5207 286.675L43.7389 286.297C44.6601 286.297 45.3437 286.467 45.7898 286.806C46.2358 287.145 46.4589 287.645 46.4589 288.304C46.4589 288.973 46.2067 289.497 45.7025 289.875C45.208 290.243 44.4468 290.428 43.4189 290.428H39.7098ZM41.0771 289.351H43.3171C43.8989 289.351 44.3352 289.264 44.6261 289.09C44.9171 288.905 45.0625 288.614 45.0625 288.217C45.0625 287.81 44.9268 287.514 44.6552 287.33C44.3934 287.136 43.9765 287.039 43.4043 287.039H41.0771V289.351ZM41.0771 286.035H43.1716C43.7049 286.035 44.1074 285.938 44.3789 285.744C44.6601 285.541 44.8007 285.259 44.8007 284.901C44.8007 284.532 44.6601 284.256 44.3789 284.071C44.1074 283.887 43.7049 283.795 43.1716 283.795H41.0771V286.035ZM53.3716 290.428V288.799L53.2989 288.493V285.715C53.2989 285.124 53.1244 284.668 52.7753 284.348C52.4359 284.018 51.9219 283.853 51.2335 283.853C50.7777 283.853 50.3317 283.931 49.8953 284.086C49.4589 284.231 49.0905 284.43 48.7899 284.682L48.208 283.635C48.6056 283.315 49.0808 283.073 49.6335 282.908C50.1959 282.733 50.7826 282.646 51.3935 282.646C52.4504 282.646 53.265 282.903 53.8371 283.417C54.4092 283.931 54.6952 284.716 54.6952 285.773V290.428H53.3716ZM50.8407 290.515C50.2686 290.515 49.7644 290.418 49.328 290.224C48.9014 290.03 48.5717 289.763 48.3389 289.424C48.1062 289.075 47.9899 288.682 47.9899 288.246C47.9899 287.829 48.0868 287.451 48.2808 287.111C48.4844 286.772 48.8092 286.501 49.2553 286.297C49.7111 286.093 50.322 285.991 51.088 285.991H53.5316V286.995H51.1462C50.448 286.995 49.9777 287.111 49.7353 287.344C49.4929 287.577 49.3717 287.858 49.3717 288.188C49.3717 288.566 49.522 288.871 49.8226 289.104C50.1232 289.327 50.5401 289.439 51.0735 289.439C51.5971 289.439 52.0529 289.322 52.4407 289.09C52.8383 288.857 53.1244 288.517 53.2989 288.071L53.5753 289.031C53.391 289.487 53.0662 289.851 52.6007 290.122C52.1353 290.384 51.5486 290.515 50.8407 290.515ZM57.2097 290.428V282.719H58.606V285.991H62.9987V282.719H64.395V290.428H62.9987V287.199H58.606V290.428H57.2097ZM27.9683 308.428V298.246H29.4082V306.1L35.43 298.246H36.7682V308.428H35.3427V300.588L29.3064 308.428H27.9683ZM39.7098 308.428V300.719H43.288C44.1898 300.719 44.8977 300.893 45.4116 301.242C45.9352 301.582 46.197 302.067 46.197 302.697C46.197 303.327 45.9498 303.817 45.4552 304.166C44.9704 304.505 44.3255 304.675 43.5207 304.675L43.7389 304.297C44.6601 304.297 45.3437 304.467 45.7898 304.806C46.2358 305.145 46.4589 305.645 46.4589 306.304C46.4589 306.973 46.2067 307.497 45.7025 307.875C45.208 308.243 44.4468 308.428 43.4189 308.428H39.7098ZM41.0771 307.351H43.3171C43.8989 307.351 44.3352 307.264 44.6261 307.09C44.9171 306.905 45.0625 306.614 45.0625 306.217C45.0625 305.81 44.9268 305.514 44.6552 305.33C44.3934 305.136 43.9765 305.039 43.4043 305.039H41.0771V307.351ZM41.0771 304.035H43.1716C43.7049 304.035 44.1074 303.938 44.3789 303.744C44.6601 303.541 44.8007 303.259 44.8007 302.901C44.8007 302.532 44.6601 302.256 44.3789 302.071C44.1074 301.887 43.7049 301.795 43.1716 301.795H41.0771V304.035ZM53.3716 308.428V306.799L53.2989 306.493V303.715C53.2989 303.124 53.1244 302.668 52.7753 302.348C52.4359 302.018 51.9219 301.853 51.2335 301.853C50.7777 301.853 50.3317 301.931 49.8953 302.086C49.4589 302.231 49.0905 302.43 48.7899 302.682L48.208 301.635C48.6056 301.315 49.0808 301.073 49.6335 300.908C50.1959 300.733 50.7826 300.646 51.3935 300.646C52.4504 300.646 53.265 300.903 53.8371 301.417C54.4092 301.931 54.6952 302.716 54.6952 303.773V308.428H53.3716ZM50.8407 308.515C50.2686 308.515 49.7644 308.418 49.328 308.224C48.9014 308.03 48.5717 307.763 48.3389 307.424C48.1062 307.075 47.9899 306.682 47.9899 306.246C47.9899 305.829 48.0868 305.451 48.2808 305.111C48.4844 304.772 48.8092 304.501 49.2553 304.297C49.7111 304.093 50.322 303.991 51.088 303.991H53.5316V304.995H51.1462C50.448 304.995 49.9777 305.111 49.7353 305.344C49.4929 305.577 49.3717 305.858 49.3717 306.188C49.3717 306.566 49.522 306.871 49.8226 307.104C50.1232 307.327 50.5401 307.439 51.0735 307.439C51.5971 307.439 52.0529 307.322 52.4407 307.09C52.8383 306.857 53.1244 306.517 53.2989 306.071L53.5753 307.031C53.391 307.487 53.0662 307.851 52.6007 308.122C52.1353 308.384 51.5486 308.515 50.8407 308.515ZM57.2097 308.428V300.719H58.606V303.991H62.9987V300.719H64.395V308.428H62.9987V305.199H58.606V308.428H57.2097ZM70.4119 308.515C69.6362 308.515 68.9477 308.345 68.3465 308.006C67.7453 307.667 67.2701 307.201 66.921 306.61C66.5719 306.008 66.3974 305.33 66.3974 304.573C66.3974 303.807 66.5719 303.128 66.921 302.537C67.2701 301.945 67.7453 301.485 68.3465 301.155C68.9477 300.816 69.6362 300.646 70.4119 300.646C71.178 300.646 71.8616 300.816 72.4628 301.155C73.0737 301.485 73.5488 301.945 73.8882 302.537C74.2373 303.119 74.4119 303.797 74.4119 304.573C74.4119 305.339 74.2373 306.018 73.8882 306.61C73.5488 307.201 73.0737 307.667 72.4628 308.006C71.8616 308.345 71.178 308.515 70.4119 308.515ZM70.4119 307.293C70.9064 307.293 71.3476 307.182 71.7355 306.959C72.1331 306.736 72.4434 306.42 72.6664 306.013C72.8895 305.596 73.001 305.116 73.001 304.573C73.001 304.021 72.8895 303.545 72.6664 303.148C72.4434 302.741 72.1331 302.425 71.7355 302.202C71.3476 301.979 70.9064 301.868 70.4119 301.868C69.9174 301.868 69.4762 301.979 69.0883 302.202C68.7004 302.425 68.3901 302.741 68.1574 303.148C67.9247 303.545 67.8083 304.021 67.8083 304.573C67.8083 305.116 67.9247 305.596 68.1574 306.013C68.3901 306.42 68.7004 306.736 69.0883 306.959C69.4762 307.182 69.9174 307.293 70.4119 307.293ZM76.4282 308.428V300.719H80.0064C80.9082 300.719 81.616 300.893 82.13 301.242C82.6536 301.582 82.9154 302.067 82.9154 302.697C82.9154 303.327 82.6681 303.817 82.1736 304.166C81.6888 304.505 81.0439 304.675 80.2391 304.675L80.4573 304.297C81.3785 304.297 82.0621 304.467 82.5081 304.806C82.9542 305.145 83.1772 305.645 83.1772 306.304C83.1772 306.973 82.9251 307.497 82.4209 307.875C81.9263 308.243 81.1651 308.428 80.1373 308.428H76.4282ZM77.7955 307.351H80.0354C80.6173 307.351 81.0536 307.264 81.3445 307.09C81.6354 306.905 81.7809 306.614 81.7809 306.217C81.7809 305.81 81.6451 305.514 81.3736 305.33C81.1118 305.136 80.6948 305.039 80.1227 305.039H77.7955V307.351ZM77.7955 304.035H79.89C80.4233 304.035 80.8257 303.938 81.0972 303.744C81.3785 303.541 81.5191 303.259 81.5191 302.901C81.5191 302.532 81.3785 302.256 81.0972 302.071C80.8257 301.887 80.4233 301.795 79.89 301.795H77.7955V304.035ZM28.7973 326.428V316.828L29.4228 317.511H26.4992V316.246H30.2373V326.428H28.7973ZM34.1808 326.428V316.828L34.8062 317.511H31.8826V316.246H35.6208V326.428H34.1808ZM47.1359 326.428V324.799L47.0632 324.493V321.715C47.0632 321.124 46.8886 320.668 46.5395 320.348C46.2001 320.018 45.6862 319.853 44.9977 319.853C44.542 319.853 44.0959 319.931 43.6596 320.086C43.2232 320.231 42.8547 320.43 42.5541 320.682L41.9723 319.635C42.3699 319.315 42.845 319.073 43.3978 318.908C43.9602 318.733 44.5468 318.646 45.1577 318.646C46.2147 318.646 47.0292 318.903 47.6013 319.417C48.1735 319.931 48.4595 320.716 48.4595 321.773V326.428H47.1359ZM44.605 326.515C44.0329 326.515 43.5287 326.418 43.0923 326.224C42.6656 326.03 42.3359 325.763 42.1032 325.424C41.8705 325.075 41.7541 324.682 41.7541 324.246C41.7541 323.829 41.8511 323.451 42.045 323.111C42.2487 322.772 42.5735 322.501 43.0196 322.297C43.4753 322.093 44.0862 321.991 44.8523 321.991H47.2959V322.995H44.9105C44.2123 322.995 43.742 323.111 43.4996 323.344C43.2571 323.577 43.1359 323.858 43.1359 324.188C43.1359 324.566 43.2862 324.871 43.5868 325.104C43.8874 325.327 44.3044 325.439 44.8377 325.439C45.3614 325.439 45.8171 325.322 46.205 325.09C46.6026 324.857 46.8886 324.517 47.0632 324.071L47.3395 325.031C47.1553 325.487 46.8304 325.851 46.365 326.122C45.8995 326.384 45.3129 326.515 44.605 326.515ZM50.9739 326.428V318.719H58.1157V326.428H56.7193V319.591L57.0539 319.941H52.0357L52.3703 319.591V326.428H50.9739ZM64.9048 326.515C64.2648 326.515 63.6781 326.37 63.1448 326.079C62.6212 325.778 62.1994 325.337 61.8794 324.755C61.5691 324.173 61.4139 323.446 61.4139 322.573C61.4139 321.701 61.5642 320.973 61.8648 320.391C62.1751 319.81 62.5921 319.373 63.1157 319.082C63.6491 318.791 64.2454 318.646 64.9048 318.646C65.6612 318.646 66.3302 318.811 66.9121 319.141C67.4939 319.47 67.9545 319.931 68.2939 320.522C68.6332 321.104 68.8029 321.788 68.8029 322.573C68.8029 323.359 68.6332 324.047 68.2939 324.639C67.9545 325.23 67.4939 325.691 66.9121 326.02C66.3302 326.35 65.6612 326.515 64.9048 326.515ZM60.8176 329.25V318.719H62.1557V320.799L62.0685 322.588L62.2139 324.377V329.25H60.8176ZM64.7884 325.293C65.283 325.293 65.7242 325.182 66.1121 324.959C66.5096 324.736 66.8199 324.42 67.043 324.013C67.2757 323.596 67.392 323.116 67.392 322.573C67.392 322.021 67.2757 321.545 67.043 321.148C66.8199 320.741 66.5096 320.425 66.1121 320.202C65.7242 319.979 65.283 319.868 64.7884 319.868C64.3036 319.868 63.8624 319.979 63.4648 320.202C63.0769 320.425 62.7666 320.741 62.5339 321.148C62.3109 321.545 62.1994 322.021 62.1994 322.573C62.1994 323.116 62.3109 323.596 62.5339 324.013C62.7666 324.42 63.0769 324.736 63.4648 324.959C63.8624 325.182 64.3036 325.293 64.7884 325.293ZM74.2644 326.515C73.4401 326.515 72.7129 326.345 72.0826 326.006C71.462 325.667 70.9771 325.201 70.628 324.61C70.2886 324.018 70.119 323.339 70.119 322.573C70.119 321.807 70.2838 321.128 70.6135 320.537C70.9529 319.945 71.4135 319.485 71.9953 319.155C72.5868 318.816 73.251 318.646 73.988 318.646C74.7347 318.646 75.394 318.811 75.9662 319.141C76.5383 319.47 76.9843 319.936 77.3043 320.537C77.634 321.128 77.7989 321.822 77.7989 322.617C77.7989 322.675 77.794 322.743 77.7843 322.82C77.7843 322.898 77.7795 322.971 77.7698 323.039H71.2098V322.035H77.0425L76.4753 322.384C76.4849 321.89 76.3831 321.448 76.1698 321.061C75.9565 320.673 75.6607 320.372 75.2825 320.159C74.9141 319.936 74.4825 319.824 73.988 319.824C73.5032 319.824 73.0716 319.936 72.6935 320.159C72.3153 320.372 72.0195 320.677 71.8062 321.075C71.5929 321.463 71.4862 321.909 71.4862 322.413V322.646C71.4862 323.16 71.6026 323.62 71.8353 324.028C72.0777 324.425 72.4123 324.736 72.8389 324.959C73.2656 325.182 73.7553 325.293 74.308 325.293C74.7638 325.293 75.1759 325.216 75.5444 325.06C75.9225 324.905 76.2522 324.673 76.5334 324.362L77.3043 325.264C76.9552 325.671 76.5189 325.982 75.9953 326.195C75.4813 326.408 74.9044 326.515 74.2644 326.515ZM78.5573 326.413L78.6445 325.235C78.7124 325.245 78.7755 325.254 78.8336 325.264C78.8918 325.274 78.9451 325.279 78.9936 325.279C79.3039 325.279 79.5464 325.172 79.7209 324.959C79.9051 324.745 80.0409 324.464 80.1282 324.115C80.2154 323.756 80.2785 323.354 80.3173 322.908C80.356 322.462 80.3851 322.016 80.4045 321.57L80.5354 318.719H86.4554V326.428H85.059V319.533L85.3936 319.941H81.4372L81.7572 319.519L81.6554 321.657C81.6263 322.336 81.573 322.971 81.4954 323.562C81.4178 324.154 81.2966 324.673 81.1318 325.119C80.9766 325.565 80.7585 325.914 80.4773 326.166C80.2057 326.418 79.8518 326.544 79.4154 326.544C79.2894 326.544 79.1536 326.53 79.0082 326.5C78.8724 326.481 78.7221 326.452 78.5573 326.413ZM94.0862 326.428V323.722L94.3044 323.984H91.8462C90.8184 323.984 90.0135 323.766 89.4317 323.33C88.8596 322.893 88.5735 322.258 88.5735 321.424C88.5735 320.532 88.879 319.858 89.4899 319.402C90.1105 318.947 90.9347 318.719 91.9626 318.719H95.3371V326.428H94.0862ZM88.5008 326.428L90.5953 323.475H92.0353L89.999 326.428H88.5008ZM94.0862 323.286V319.548L94.3044 319.941H92.0062C91.3662 319.941 90.8717 320.062 90.5226 320.304C90.1735 320.537 89.999 320.925 89.999 321.468C89.999 322.476 90.6487 322.98 91.948 322.98H94.3044L94.0862 323.286Z" fill="black"/>
<path d="M27.9683 426.231V416.049H29.4082V423.904L35.43 416.049H36.7682V426.231H35.3427V418.391L29.3064 426.231H27.9683ZM39.7098 426.231V418.522H43.288C44.1898 418.522 44.8977 418.697 45.4116 419.046C45.9352 419.385 46.197 419.87 46.197 420.5C46.197 421.131 45.9498 421.62 45.4552 421.969C44.9704 422.309 44.3255 422.479 43.5207 422.479L43.7389 422.1C44.6601 422.1 45.3437 422.27 45.7898 422.609C46.2358 422.949 46.4589 423.448 46.4589 424.108C46.4589 424.777 46.2067 425.3 45.7025 425.678C45.208 426.047 44.4468 426.231 43.4189 426.231H39.7098ZM41.0771 425.155H43.3171C43.8989 425.155 44.3352 425.068 44.6261 424.893C44.9171 424.709 45.0625 424.418 45.0625 424.02C45.0625 423.613 44.9268 423.317 44.6552 423.133C44.3934 422.939 43.9765 422.842 43.4043 422.842H41.0771V425.155ZM41.0771 421.839H43.1716C43.7049 421.839 44.1074 421.742 44.3789 421.548C44.6601 421.344 44.8007 421.063 44.8007 420.704C44.8007 420.336 44.6601 420.059 44.3789 419.875C44.1074 419.691 43.7049 419.599 43.1716 419.599H41.0771V421.839ZM53.3716 426.231V424.602L53.2989 424.297V421.519C53.2989 420.927 53.1244 420.471 52.7753 420.151C52.4359 419.822 51.9219 419.657 51.2335 419.657C50.7777 419.657 50.3317 419.734 49.8953 419.889C49.4589 420.035 49.0905 420.234 48.7899 420.486L48.208 419.439C48.6056 419.119 49.0808 418.876 49.6335 418.711C50.1959 418.537 50.7826 418.449 51.3935 418.449C52.4504 418.449 53.265 418.706 53.8371 419.22C54.4092 419.734 54.6952 420.52 54.6952 421.577V426.231H53.3716ZM50.8407 426.318C50.2686 426.318 49.7644 426.222 49.328 426.028C48.9014 425.834 48.5717 425.567 48.3389 425.228C48.1062 424.878 47.9899 424.486 47.9899 424.049C47.9899 423.632 48.0868 423.254 48.2808 422.915C48.4844 422.575 48.8092 422.304 49.2553 422.1C49.7111 421.897 50.322 421.795 51.088 421.795H53.5316V422.799H51.1462C50.448 422.799 49.9777 422.915 49.7353 423.148C49.4929 423.38 49.3717 423.662 49.3717 423.991C49.3717 424.369 49.522 424.675 49.8226 424.908C50.1232 425.131 50.5401 425.242 51.0735 425.242C51.5971 425.242 52.0529 425.126 52.4407 424.893C52.8383 424.66 53.1244 424.321 53.2989 423.875L53.5753 424.835C53.391 425.291 53.0662 425.654 52.6007 425.926C52.1353 426.188 51.5486 426.318 50.8407 426.318ZM57.2097 426.231V418.522H58.606V421.795H62.9987V418.522H64.395V426.231H62.9987V423.002H58.606V426.231H57.2097ZM27.9683 444.231V434.049H29.4082V441.904L35.43 434.049H36.7682V444.231H35.3427V436.391L29.3064 444.231H27.9683ZM39.7098 444.231V436.522H43.288C44.1898 436.522 44.8977 436.697 45.4116 437.046C45.9352 437.385 46.197 437.87 46.197 438.5C46.197 439.131 45.9498 439.62 45.4552 439.969C44.9704 440.309 44.3255 440.479 43.5207 440.479L43.7389 440.1C44.6601 440.1 45.3437 440.27 45.7898 440.609C46.2358 440.949 46.4589 441.448 46.4589 442.108C46.4589 442.777 46.2067 443.3 45.7025 443.678C45.208 444.047 44.4468 444.231 43.4189 444.231H39.7098ZM41.0771 443.155H43.3171C43.8989 443.155 44.3352 443.068 44.6261 442.893C44.9171 442.709 45.0625 442.418 45.0625 442.02C45.0625 441.613 44.9268 441.317 44.6552 441.133C44.3934 440.939 43.9765 440.842 43.4043 440.842H41.0771V443.155ZM41.0771 439.839H43.1716C43.7049 439.839 44.1074 439.742 44.3789 439.548C44.6601 439.344 44.8007 439.063 44.8007 438.704C44.8007 438.336 44.6601 438.059 44.3789 437.875C44.1074 437.691 43.7049 437.599 43.1716 437.599H41.0771V439.839ZM53.3716 444.231V442.602L53.2989 442.297V439.519C53.2989 438.927 53.1244 438.471 52.7753 438.151C52.4359 437.822 51.9219 437.657 51.2335 437.657C50.7777 437.657 50.3317 437.734 49.8953 437.889C49.4589 438.035 49.0905 438.234 48.7899 438.486L48.208 437.439C48.6056 437.119 49.0808 436.876 49.6335 436.711C50.1959 436.537 50.7826 436.449 51.3935 436.449C52.4504 436.449 53.265 436.706 53.8371 437.22C54.4092 437.734 54.6952 438.52 54.6952 439.577V444.231H53.3716ZM50.8407 444.318C50.2686 444.318 49.7644 444.222 49.328 444.028C48.9014 443.834 48.5717 443.567 48.3389 443.228C48.1062 442.878 47.9899 442.486 47.9899 442.049C47.9899 441.632 48.0868 441.254 48.2808 440.915C48.4844 440.575 48.8092 440.304 49.2553 440.1C49.7111 439.897 50.322 439.795 51.088 439.795H53.5316V440.799H51.1462C50.448 440.799 49.9777 440.915 49.7353 441.148C49.4929 441.38 49.3717 441.662 49.3717 441.991C49.3717 442.369 49.522 442.675 49.8226 442.908C50.1232 443.131 50.5401 443.242 51.0735 443.242C51.5971 443.242 52.0529 443.126 52.4407 442.893C52.8383 442.66 53.1244 442.321 53.2989 441.875L53.5753 442.835C53.391 443.291 53.0662 443.654 52.6007 443.926C52.1353 444.188 51.5486 444.318 50.8407 444.318ZM57.2097 444.231V436.522H58.606V439.795H62.9987V436.522H64.395V444.231H62.9987V441.002H58.606V444.231H57.2097ZM70.4119 444.318C69.6362 444.318 68.9477 444.149 68.3465 443.809C67.7453 443.47 67.2701 443.005 66.921 442.413C66.5719 441.812 66.3974 441.133 66.3974 440.377C66.3974 439.611 66.5719 438.932 66.921 438.34C67.2701 437.749 67.7453 437.288 68.3465 436.959C68.9477 436.619 69.6362 436.449 70.4119 436.449C71.178 436.449 71.8616 436.619 72.4628 436.959C73.0737 437.288 73.5488 437.749 73.8882 438.34C74.2373 438.922 74.4119 439.601 74.4119 440.377C74.4119 441.143 74.2373 441.822 73.8882 442.413C73.5488 443.005 73.0737 443.47 72.4628 443.809C71.8616 444.149 71.178 444.318 70.4119 444.318ZM70.4119 443.097C70.9064 443.097 71.3476 442.985 71.7355 442.762C72.1331 442.539 72.4434 442.224 72.6664 441.817C72.8895 441.4 73.001 440.92 73.001 440.377C73.001 439.824 72.8895 439.349 72.6664 438.951C72.4434 438.544 72.1331 438.229 71.7355 438.006C71.3476 437.783 70.9064 437.671 70.4119 437.671C69.9174 437.671 69.4762 437.783 69.0883 438.006C68.7004 438.229 68.3901 438.544 68.1574 438.951C67.9247 439.349 67.8083 439.824 67.8083 440.377C67.8083 440.92 67.9247 441.4 68.1574 441.817C68.3901 442.224 68.7004 442.539 69.0883 442.762C69.4762 442.985 69.9174 443.097 70.4119 443.097ZM76.4282 444.231V436.522H80.0064C80.9082 436.522 81.616 436.697 82.13 437.046C82.6536 437.385 82.9154 437.87 82.9154 438.5C82.9154 439.131 82.6681 439.62 82.1736 439.969C81.6888 440.309 81.0439 440.479 80.2391 440.479L80.4573 440.1C81.3785 440.1 82.0621 440.27 82.5081 440.609C82.9542 440.949 83.1772 441.448 83.1772 442.108C83.1772 442.777 82.9251 443.3 82.4209 443.678C81.9263 444.047 81.1651 444.231 80.1373 444.231H76.4282ZM77.7955 443.155H80.0354C80.6173 443.155 81.0536 443.068 81.3445 442.893C81.6354 442.709 81.7809 442.418 81.7809 442.02C81.7809 441.613 81.6451 441.317 81.3736 441.133C81.1118 440.939 80.6948 440.842 80.1227 440.842H77.7955V443.155ZM77.7955 439.839H79.89C80.4233 439.839 80.8257 439.742 81.0972 439.548C81.3785 439.344 81.5191 439.063 81.5191 438.704C81.5191 438.336 81.3785 438.059 81.0972 437.875C80.8257 437.691 80.4233 437.599 79.89 437.599H77.7955V439.839ZM28.7973 462.231V452.631L29.4228 453.315H26.4992V452.049H30.2373V462.231H28.7973ZM34.1808 462.231V452.631L34.8062 453.315H31.8826V452.049H35.6208V462.231H34.1808ZM47.1359 462.231V460.602L47.0632 460.297V457.519C47.0632 456.927 46.8886 456.471 46.5395 456.151C46.2001 455.822 45.6862 455.657 44.9977 455.657C44.542 455.657 44.0959 455.734 43.6596 455.889C43.2232 456.035 42.8547 456.234 42.5541 456.486L41.9723 455.439C42.3699 455.119 42.845 454.876 43.3978 454.711C43.9602 454.537 44.5468 454.449 45.1577 454.449C46.2147 454.449 47.0292 454.706 47.6013 455.22C48.1735 455.734 48.4595 456.52 48.4595 457.577V462.231H47.1359ZM44.605 462.318C44.0329 462.318 43.5287 462.222 43.0923 462.028C42.6656 461.834 42.3359 461.567 42.1032 461.228C41.8705 460.878 41.7541 460.486 41.7541 460.049C41.7541 459.632 41.8511 459.254 42.045 458.915C42.2487 458.575 42.5735 458.304 43.0196 458.1C43.4753 457.897 44.0862 457.795 44.8523 457.795H47.2959V458.799H44.9105C44.2123 458.799 43.742 458.915 43.4996 459.148C43.2571 459.38 43.1359 459.662 43.1359 459.991C43.1359 460.369 43.2862 460.675 43.5868 460.908C43.8874 461.131 44.3044 461.242 44.8377 461.242C45.3614 461.242 45.8171 461.126 46.205 460.893C46.6026 460.66 46.8886 460.321 47.0632 459.875L47.3395 460.835C47.1553 461.291 46.8304 461.654 46.365 461.926C45.8995 462.188 45.3129 462.318 44.605 462.318ZM50.9739 462.231V454.522H58.1157V462.231H56.7193V455.395L57.0539 455.744H52.0357L52.3703 455.395V462.231H50.9739ZM64.9048 462.318C64.2648 462.318 63.6781 462.173 63.1448 461.882C62.6212 461.582 62.1994 461.14 61.8794 460.558C61.5691 459.977 61.4139 459.249 61.4139 458.377C61.4139 457.504 61.5642 456.777 61.8648 456.195C62.1751 455.613 62.5921 455.177 63.1157 454.886C63.6491 454.595 64.2454 454.449 64.9048 454.449C65.6612 454.449 66.3302 454.614 66.9121 454.944C67.4939 455.274 67.9545 455.734 68.2939 456.326C68.6332 456.908 68.8029 457.591 68.8029 458.377C68.8029 459.162 68.6332 459.851 68.2939 460.442C67.9545 461.034 67.4939 461.494 66.9121 461.824C66.3302 462.154 65.6612 462.318 64.9048 462.318ZM60.8176 465.053V454.522H62.1557V456.602L62.0685 458.391L62.2139 460.18V465.053H60.8176ZM64.7884 461.097C65.283 461.097 65.7242 460.985 66.1121 460.762C66.5096 460.539 66.8199 460.224 67.043 459.817C67.2757 459.4 67.392 458.92 67.392 458.377C67.392 457.824 67.2757 457.349 67.043 456.951C66.8199 456.544 66.5096 456.229 66.1121 456.006C65.7242 455.783 65.283 455.671 64.7884 455.671C64.3036 455.671 63.8624 455.783 63.4648 456.006C63.0769 456.229 62.7666 456.544 62.5339 456.951C62.3109 457.349 62.1994 457.824 62.1994 458.377C62.1994 458.92 62.3109 459.4 62.5339 459.817C62.7666 460.224 63.0769 460.539 63.4648 460.762C63.8624 460.985 64.3036 461.097 64.7884 461.097ZM74.2644 462.318C73.4401 462.318 72.7129 462.149 72.0826 461.809C71.462 461.47 70.9771 461.005 70.628 460.413C70.2886 459.822 70.119 459.143 70.119 458.377C70.119 457.611 70.2838 456.932 70.6135 456.34C70.9529 455.749 71.4135 455.288 71.9953 454.959C72.5868 454.619 73.251 454.449 73.988 454.449C74.7347 454.449 75.394 454.614 75.9662 454.944C76.5383 455.274 76.9843 455.739 77.3043 456.34C77.634 456.932 77.7989 457.625 77.7989 458.42C77.7989 458.479 77.794 458.546 77.7843 458.624C77.7843 458.702 77.7795 458.774 77.7698 458.842H71.2098V457.839H77.0425L76.4753 458.188C76.4849 457.693 76.3831 457.252 76.1698 456.864C75.9565 456.476 75.6607 456.176 75.2825 455.962C74.9141 455.739 74.4825 455.628 73.988 455.628C73.5032 455.628 73.0716 455.739 72.6935 455.962C72.3153 456.176 72.0195 456.481 71.8062 456.879C71.5929 457.266 71.4862 457.712 71.4862 458.217V458.449C71.4862 458.963 71.6026 459.424 71.8353 459.831C72.0777 460.229 72.4123 460.539 72.8389 460.762C73.2656 460.985 73.7553 461.097 74.308 461.097C74.7638 461.097 75.1759 461.019 75.5444 460.864C75.9225 460.709 76.2522 460.476 76.5334 460.166L77.3043 461.068C76.9552 461.475 76.5189 461.785 75.9953 461.998C75.4813 462.212 74.9044 462.318 74.2644 462.318ZM78.5573 462.217L78.6445 461.038C78.7124 461.048 78.7755 461.058 78.8336 461.068C78.8918 461.077 78.9451 461.082 78.9936 461.082C79.3039 461.082 79.5464 460.975 79.7209 460.762C79.9051 460.549 80.0409 460.268 80.1282 459.918C80.2154 459.56 80.2785 459.157 80.3173 458.711C80.356 458.265 80.3851 457.819 80.4045 457.373L80.5354 454.522H86.4554V462.231H85.059V455.337L85.3936 455.744H81.4372L81.7572 455.322L81.6554 457.46C81.6263 458.139 81.573 458.774 81.4954 459.366C81.4178 459.957 81.2966 460.476 81.1318 460.922C80.9766 461.368 80.7585 461.717 80.4773 461.969C80.2057 462.222 79.8518 462.348 79.4154 462.348C79.2894 462.348 79.1536 462.333 79.0082 462.304C78.8724 462.285 78.7221 462.255 78.5573 462.217ZM94.0862 462.231V459.526L94.3044 459.788H91.8462C90.8184 459.788 90.0135 459.569 89.4317 459.133C88.8596 458.697 88.5735 458.062 88.5735 457.228C88.5735 456.336 88.879 455.662 89.4899 455.206C90.1105 454.75 90.9347 454.522 91.9626 454.522H95.3371V462.231H94.0862ZM88.5008 462.231L90.5953 459.279H92.0353L89.999 462.231H88.5008ZM94.0862 459.089V455.351L94.3044 455.744H92.0062C91.3662 455.744 90.8717 455.865 90.5226 456.108C90.1735 456.34 89.999 456.728 89.999 457.271C89.999 458.28 90.6487 458.784 91.948 458.784H94.3044L94.0862 459.089Z" fill="black"/>
<path d="M122.883 113.743C122.294 113.743 121.771 113.59 121.312 113.285C120.854 112.972 120.494 112.529 120.232 111.954C119.971 111.372 119.84 110.674 119.84 109.86C119.84 109.045 119.971 108.351 120.232 107.776C120.494 107.194 120.854 106.751 121.312 106.445C121.771 106.132 122.294 105.976 122.883 105.976C123.472 105.976 123.996 106.132 124.454 106.445C124.912 106.751 125.272 107.194 125.534 107.776C125.803 108.351 125.938 109.045 125.938 109.86C125.938 110.674 125.803 111.372 125.534 111.954C125.272 112.529 124.912 112.972 124.454 113.285C123.996 113.59 123.472 113.743 122.883 113.743ZM122.883 113.023C123.334 113.023 123.727 112.903 124.062 112.663C124.396 112.416 124.658 112.06 124.847 111.594C125.036 111.121 125.131 110.543 125.131 109.86C125.131 109.176 125.036 108.601 124.847 108.136C124.658 107.663 124.396 107.307 124.062 107.067C123.727 106.82 123.334 106.696 122.883 106.696C122.447 106.696 122.058 106.82 121.716 107.067C121.374 107.307 121.109 107.663 120.92 108.136C120.731 108.601 120.636 109.176 120.636 109.86C120.636 110.543 120.731 111.121 120.92 111.594C121.109 112.06 121.374 112.416 121.716 112.663C122.058 112.903 122.447 113.023 122.883 113.023ZM132.809 113.732C132.256 113.732 131.758 113.609 131.314 113.361C130.878 113.107 130.532 112.761 130.278 112.325C130.023 111.881 129.896 111.376 129.896 110.809C129.896 110.234 130.023 109.729 130.278 109.292C130.532 108.856 130.878 108.514 131.314 108.267C131.75 108.02 132.249 107.896 132.809 107.896C133.376 107.896 133.878 108.02 134.314 108.267C134.758 108.514 135.103 108.856 135.35 109.292C135.605 109.729 135.732 110.234 135.732 110.809C135.732 111.376 135.605 111.881 135.35 112.325C135.103 112.761 134.758 113.107 134.314 113.361C133.87 113.609 133.369 113.732 132.809 113.732ZM132.809 113.045C133.223 113.045 133.59 112.954 133.91 112.772C134.23 112.583 134.481 112.321 134.663 111.987C134.852 111.645 134.947 111.252 134.947 110.809C134.947 110.358 134.852 109.965 134.663 109.631C134.481 109.296 134.23 109.038 133.91 108.856C133.59 108.667 133.227 108.572 132.82 108.572C132.412 108.572 132.049 108.667 131.729 108.856C131.409 109.038 131.154 109.296 130.965 109.631C130.776 109.965 130.681 110.358 130.681 110.809C130.681 111.252 130.776 111.645 130.965 111.987C131.154 112.321 131.409 112.583 131.729 112.772C132.049 112.954 132.409 113.045 132.809 113.045ZM138.265 113.678V108.42L138.462 108.627H136.095V107.951H141.211V108.627H138.844L139.04 108.42V113.678H138.265ZM143.709 113.743C143.295 113.743 142.884 113.685 142.476 113.569C142.069 113.452 141.709 113.274 141.396 113.034L141.647 112.456C141.924 112.66 142.244 112.816 142.607 112.925C142.971 113.027 143.331 113.078 143.687 113.078C144.044 113.07 144.353 113.02 144.615 112.925C144.876 112.83 145.08 112.7 145.225 112.532C145.371 112.365 145.444 112.176 145.444 111.965C145.444 111.66 145.305 111.423 145.029 111.256C144.753 111.081 144.375 110.994 143.895 110.994H142.913V110.427H143.84C144.124 110.427 144.375 110.39 144.593 110.318C144.811 110.245 144.978 110.14 145.095 110.001C145.218 109.863 145.28 109.7 145.28 109.511C145.28 109.307 145.207 109.132 145.062 108.987C144.924 108.841 144.731 108.732 144.484 108.66C144.236 108.587 143.956 108.551 143.644 108.551C143.36 108.558 143.065 108.601 142.76 108.681C142.455 108.754 142.153 108.867 141.855 109.02L141.636 108.42C141.971 108.245 142.302 108.114 142.629 108.027C142.964 107.932 143.298 107.885 143.633 107.885C144.091 107.871 144.502 107.925 144.865 108.049C145.236 108.172 145.531 108.351 145.749 108.583C145.967 108.809 146.076 109.081 146.076 109.401C146.076 109.685 145.989 109.932 145.815 110.143C145.64 110.354 145.407 110.518 145.116 110.634C144.825 110.75 144.495 110.809 144.124 110.809L144.156 110.601C144.811 110.601 145.32 110.729 145.684 110.983C146.055 111.238 146.24 111.583 146.24 112.02C146.24 112.361 146.127 112.663 145.902 112.925C145.676 113.18 145.371 113.38 144.985 113.525C144.607 113.67 144.182 113.743 143.709 113.743ZM153.584 113.678V107.951H154.358V113.678H153.584ZM150.409 109.969C151.129 109.976 151.678 110.136 152.056 110.449C152.435 110.761 152.624 111.212 152.624 111.801C152.624 112.412 152.42 112.881 152.013 113.209C151.606 113.536 151.024 113.696 150.267 113.689L147.998 113.678V107.951H148.773V109.947L150.409 109.969ZM150.213 113.1C150.751 113.107 151.155 113.001 151.424 112.783C151.7 112.558 151.838 112.23 151.838 111.801C151.838 111.372 151.704 111.06 151.435 110.863C151.166 110.66 150.758 110.554 150.213 110.547L148.773 110.525V113.078L150.213 113.1ZM156.564 113.678V107.951H159.094C159.742 107.951 160.251 108.074 160.622 108.321C161 108.569 161.189 108.932 161.189 109.412C161.189 109.878 161.011 110.238 160.654 110.492C160.298 110.74 159.829 110.863 159.247 110.863L159.4 110.634C160.083 110.634 160.585 110.761 160.905 111.016C161.225 111.27 161.385 111.638 161.385 112.118C161.385 112.612 161.203 112.998 160.84 113.274C160.483 113.543 159.927 113.678 159.171 113.678H156.564ZM157.316 113.067H159.138C159.625 113.067 159.993 112.99 160.24 112.838C160.494 112.678 160.622 112.423 160.622 112.074C160.622 111.725 160.509 111.47 160.283 111.31C160.058 111.15 159.702 111.07 159.214 111.07H157.316V113.067ZM157.316 110.492H159.04C159.483 110.492 159.822 110.409 160.054 110.241C160.294 110.074 160.414 109.831 160.414 109.511C160.414 109.191 160.294 108.951 160.054 108.791C159.822 108.631 159.483 108.551 159.04 108.551H157.316V110.492ZM165.557 113.732C165.004 113.732 164.506 113.609 164.062 113.361C163.626 113.107 163.281 112.761 163.026 112.325C162.771 111.881 162.644 111.376 162.644 110.809C162.644 110.234 162.771 109.729 163.026 109.292C163.281 108.856 163.626 108.514 164.062 108.267C164.499 108.02 164.997 107.896 165.557 107.896C166.124 107.896 166.626 108.02 167.062 108.267C167.506 108.514 167.851 108.856 168.099 109.292C168.353 109.729 168.48 110.234 168.48 110.809C168.48 111.376 168.353 111.881 168.099 112.325C167.851 112.761 167.506 113.107 167.062 113.361C166.619 113.609 166.117 113.732 165.557 113.732ZM165.557 113.045C165.971 113.045 166.339 112.954 166.659 112.772C166.979 112.583 167.23 112.321 167.411 111.987C167.6 111.645 167.695 111.252 167.695 110.809C167.695 110.358 167.6 109.965 167.411 109.631C167.23 109.296 166.979 109.038 166.659 108.856C166.339 108.667 165.975 108.572 165.568 108.572C165.161 108.572 164.797 108.667 164.477 108.856C164.157 109.038 163.902 109.296 163.713 109.631C163.524 109.965 163.43 110.358 163.43 110.809C163.43 111.252 163.524 111.645 163.713 111.987C163.902 112.321 164.157 112.583 164.477 112.772C164.797 112.954 165.157 113.045 165.557 113.045ZM170.136 113.678V107.951H172.667C173.314 107.951 173.823 108.074 174.194 108.321C174.572 108.569 174.761 108.932 174.761 109.412C174.761 109.878 174.583 110.238 174.227 110.492C173.87 110.74 173.401 110.863 172.819 110.863L172.972 110.634C173.656 110.634 174.158 110.761 174.478 111.016C174.798 111.27 174.958 111.638 174.958 112.118C174.958 112.612 174.776 112.998 174.412 113.274C174.056 113.543 173.499 113.678 172.743 113.678H170.136ZM170.889 113.067H172.71C173.198 113.067 173.565 112.99 173.812 112.838C174.067 112.678 174.194 112.423 174.194 112.074C174.194 111.725 174.081 111.47 173.856 111.31C173.63 111.15 173.274 111.07 172.787 111.07H170.889V113.067ZM170.889 110.492H172.612C173.056 110.492 173.394 110.409 173.627 110.241C173.867 110.074 173.987 109.831 173.987 109.511C173.987 109.191 173.867 108.951 173.627 108.791C173.394 108.631 173.056 108.551 172.612 108.551H170.889V110.492ZM182.137 113.743C181.548 113.743 181.024 113.59 180.566 113.285C180.108 112.972 179.748 112.529 179.486 111.954C179.224 111.372 179.093 110.674 179.093 109.86C179.093 109.045 179.224 108.351 179.486 107.776C179.748 107.194 180.108 106.751 180.566 106.445C181.024 106.132 181.548 105.976 182.137 105.976C182.726 105.976 183.25 106.132 183.708 106.445C184.166 106.751 184.526 107.194 184.788 107.776C185.057 108.351 185.191 109.045 185.191 109.86C185.191 110.674 185.057 111.372 184.788 111.954C184.526 112.529 184.166 112.972 183.708 113.285C183.25 113.59 182.726 113.743 182.137 113.743ZM182.137 113.023C182.588 113.023 182.981 112.903 183.315 112.663C183.65 112.416 183.912 112.06 184.101 111.594C184.29 111.121 184.384 110.543 184.384 109.86C184.384 109.176 184.29 108.601 184.101 108.136C183.912 107.663 183.65 107.307 183.315 107.067C182.981 106.82 182.588 106.696 182.137 106.696C181.701 106.696 181.312 106.82 180.97 107.067C180.628 107.307 180.362 107.663 180.173 108.136C179.984 108.601 179.89 109.176 179.89 109.86C179.89 110.543 179.984 111.121 180.173 111.594C180.362 112.06 180.628 112.416 180.97 112.663C181.312 112.903 181.701 113.023 182.137 113.023ZM192.062 113.732C191.51 113.732 191.011 113.609 190.568 113.361C190.131 113.107 189.786 112.761 189.531 112.325C189.277 111.881 189.15 111.376 189.15 110.809C189.15 110.234 189.277 109.729 189.531 109.292C189.786 108.856 190.131 108.514 190.568 108.267C191.004 108.02 191.502 107.896 192.062 107.896C192.63 107.896 193.131 108.02 193.568 108.267C194.011 108.514 194.357 108.856 194.604 109.292C194.859 109.729 194.986 110.234 194.986 110.809C194.986 111.376 194.859 111.881 194.604 112.325C194.357 112.761 194.011 113.107 193.568 113.361C193.124 113.609 192.622 113.732 192.062 113.732ZM192.062 113.045C192.477 113.045 192.844 112.954 193.164 112.772C193.484 112.583 193.735 112.321 193.917 111.987C194.106 111.645 194.2 111.252 194.2 110.809C194.2 110.358 194.106 109.965 193.917 109.631C193.735 109.296 193.484 109.038 193.164 108.856C192.844 108.667 192.48 108.572 192.073 108.572C191.666 108.572 191.302 108.667 190.982 108.856C190.662 109.038 190.408 109.296 190.219 109.631C190.03 109.965 189.935 110.358 189.935 110.809C189.935 111.252 190.03 111.645 190.219 111.987C190.408 112.321 190.662 112.583 190.982 112.772C191.302 112.954 191.662 113.045 192.062 113.045ZM196.641 113.678V107.951H197.416V113.001H200.918V107.951H201.692V113.678H196.641ZM201.888 115.063V113.612L202.085 113.678H200.918V113.001H202.619V115.063H201.888ZM206.553 113.732C205.957 113.732 205.433 113.609 204.982 113.361C204.531 113.107 204.179 112.761 203.924 112.325C203.669 111.881 203.542 111.376 203.542 110.809C203.542 110.241 203.662 109.74 203.902 109.303C204.149 108.867 204.484 108.525 204.906 108.278C205.335 108.023 205.815 107.896 206.346 107.896C206.884 107.896 207.36 108.02 207.775 108.267C208.197 108.507 208.528 108.849 208.768 109.292C209.008 109.729 209.128 110.234 209.128 110.809C209.128 110.845 209.124 110.885 209.117 110.929C209.117 110.965 209.117 111.005 209.117 111.049H204.131V110.47H208.702L208.397 110.7C208.397 110.285 208.306 109.918 208.124 109.598C207.949 109.271 207.709 109.016 207.404 108.834C207.099 108.652 206.746 108.561 206.346 108.561C205.953 108.561 205.6 108.652 205.288 108.834C204.975 109.016 204.731 109.271 204.557 109.598C204.382 109.925 204.295 110.3 204.295 110.721V110.841C204.295 111.278 204.389 111.663 204.579 111.998C204.775 112.325 205.044 112.583 205.386 112.772C205.735 112.954 206.131 113.045 206.575 113.045C206.924 113.045 207.248 112.983 207.546 112.86C207.851 112.736 208.113 112.547 208.331 112.292L208.768 112.794C208.513 113.1 208.193 113.332 207.808 113.492C207.429 113.652 207.011 113.732 206.553 113.732ZM210.842 113.678V107.951H211.617V110.481H215.227V107.951H216.002V113.678H215.227V111.147H211.617V113.678H210.842ZM220.56 113.732C220.007 113.732 219.509 113.609 219.065 113.361C218.629 113.107 218.284 112.761 218.029 112.325C217.774 111.881 217.647 111.376 217.647 110.809C217.647 110.234 217.774 109.729 218.029 109.292C218.284 108.856 218.629 108.514 219.065 108.267C219.502 108.02 220 107.896 220.56 107.896C221.127 107.896 221.629 108.02 222.065 108.267C222.509 108.514 222.854 108.856 223.102 109.292C223.356 109.729 223.483 110.234 223.483 110.809C223.483 111.376 223.356 111.881 223.102 112.325C222.854 112.761 222.509 113.107 222.065 113.361C221.622 113.609 221.12 113.732 220.56 113.732ZM220.56 113.045C220.974 113.045 221.342 112.954 221.662 112.772C221.982 112.583 222.233 112.321 222.414 111.987C222.603 111.645 222.698 111.252 222.698 110.809C222.698 110.358 222.603 109.965 222.414 109.631C222.233 109.296 221.982 109.038 221.662 108.856C221.342 108.667 220.978 108.572 220.571 108.572C220.163 108.572 219.8 108.667 219.48 108.856C219.16 109.038 218.905 109.296 218.716 109.631C218.527 109.965 218.433 110.358 218.433 110.809C218.433 111.252 218.527 111.645 218.716 111.987C218.905 112.321 219.16 112.583 219.48 112.772C219.8 112.954 220.16 113.045 220.56 113.045ZM229.339 113.678L226.982 110.841L227.626 110.46L230.255 113.678H229.339ZM225.139 113.678V107.951H225.913V113.678H225.139ZM225.673 111.125V110.46H227.517V111.125H225.673ZM227.692 110.896L226.972 110.787L229.252 107.951H230.091L227.692 110.896Z" fill="#979797"/>
<rect x="371.972" y="169.582" width="172.794" height="30.9552" rx="8" fill="#5974D2"/>
<path d="M402.11 191.687C401.334 191.687 400.612 191.556 399.943 191.294C399.283 191.033 398.711 190.669 398.226 190.204C397.742 189.728 397.363 189.176 397.092 188.545C396.82 187.915 396.685 187.227 396.685 186.48C396.685 185.733 396.82 185.045 397.092 184.415C397.363 183.784 397.742 183.236 398.226 182.771C398.711 182.296 399.283 181.927 399.943 181.665C400.602 181.404 401.325 181.273 402.11 181.273C402.886 181.273 403.599 181.404 404.248 181.665C404.908 181.918 405.48 182.281 405.965 182.756C406.459 183.222 406.837 183.77 407.099 184.4C407.371 185.03 407.506 185.724 407.506 186.48C407.506 187.236 407.371 187.93 407.099 188.56C406.837 189.19 406.459 189.743 405.965 190.218C405.48 190.684 404.908 191.047 404.248 191.309C403.599 191.561 402.886 191.687 402.11 191.687ZM402.11 190.393C402.672 190.393 403.191 190.296 403.666 190.102C404.151 189.908 404.568 189.636 404.917 189.287C405.276 188.928 405.552 188.511 405.746 188.036C405.95 187.561 406.052 187.042 406.052 186.48C406.052 185.918 405.95 185.399 405.746 184.924C405.552 184.448 405.276 184.036 404.917 183.687C404.568 183.328 404.151 183.052 403.666 182.858C403.191 182.664 402.672 182.567 402.11 182.567C401.538 182.567 401.009 182.664 400.525 182.858C400.049 183.052 399.633 183.328 399.274 183.687C398.915 184.036 398.634 184.448 398.43 184.924C398.236 185.399 398.139 185.918 398.139 186.48C398.139 187.042 398.236 187.561 398.43 188.036C398.634 188.511 398.915 188.928 399.274 189.287C399.633 189.636 400.049 189.908 400.525 190.102C401.009 190.296 401.538 190.393 402.11 190.393ZM412.985 191.658C412.2 191.658 411.496 191.488 410.876 191.149C410.265 190.81 409.785 190.344 409.436 189.753C409.087 189.161 408.912 188.482 408.912 187.716C408.912 186.95 409.087 186.271 409.436 185.68C409.785 185.088 410.265 184.628 410.876 184.298C411.496 183.959 412.2 183.789 412.985 183.789C413.683 183.789 414.304 183.93 414.847 184.211C415.399 184.482 415.826 184.89 416.127 185.433L415.065 186.116C414.813 185.738 414.503 185.462 414.134 185.287C413.775 185.103 413.387 185.011 412.97 185.011C412.466 185.011 412.015 185.122 411.618 185.345C411.22 185.568 410.905 185.884 410.672 186.291C410.44 186.688 410.323 187.164 410.323 187.716C410.323 188.269 410.44 188.749 410.672 189.156C410.905 189.564 411.22 189.879 411.618 190.102C412.015 190.325 412.466 190.436 412.97 190.436C413.387 190.436 413.775 190.349 414.134 190.174C414.503 189.99 414.813 189.709 415.065 189.331L416.127 190C415.826 190.533 415.399 190.945 414.847 191.236C414.304 191.517 413.683 191.658 412.985 191.658ZM419.362 191.571V184.72L419.711 185.084H416.541V183.862H423.581V185.084H420.424L420.759 184.72V191.571H419.362ZM429.736 191.571V189.942L429.663 189.636V186.858C429.663 186.267 429.488 185.811 429.139 185.491C428.8 185.161 428.286 184.996 427.597 184.996C427.142 184.996 426.696 185.074 426.259 185.229C425.823 185.375 425.454 185.573 425.154 185.825L424.572 184.778C424.97 184.458 425.445 184.216 425.997 184.051C426.56 183.876 427.147 183.789 427.757 183.789C428.814 183.789 429.629 184.046 430.201 184.56C430.773 185.074 431.059 185.859 431.059 186.916V191.571H429.736ZM427.205 191.658C426.633 191.658 426.128 191.561 425.692 191.367C425.265 191.173 424.936 190.907 424.703 190.567C424.47 190.218 424.354 189.825 424.354 189.389C424.354 188.972 424.451 188.594 424.645 188.254C424.848 187.915 425.173 187.644 425.619 187.44C426.075 187.236 426.686 187.134 427.452 187.134H429.896V188.138H427.51C426.812 188.138 426.342 188.254 426.099 188.487C425.857 188.72 425.736 189.001 425.736 189.331C425.736 189.709 425.886 190.014 426.187 190.247C426.487 190.47 426.904 190.582 427.437 190.582C427.961 190.582 428.417 190.465 428.805 190.233C429.202 190 429.488 189.661 429.663 189.214L429.939 190.174C429.755 190.63 429.43 190.994 428.965 191.265C428.499 191.527 427.913 191.658 427.205 191.658ZM433.574 191.571V183.862H437.152C438.054 183.862 438.761 184.036 439.275 184.385C439.799 184.725 440.061 185.21 440.061 185.84C440.061 186.47 439.814 186.96 439.319 187.309C438.834 187.648 438.189 187.818 437.384 187.818L437.603 187.44C438.524 187.44 439.208 187.61 439.654 187.949C440.1 188.288 440.323 188.788 440.323 189.447C440.323 190.116 440.071 190.64 439.566 191.018C439.072 191.387 438.311 191.571 437.283 191.571H433.574ZM434.941 190.494H437.181C437.763 190.494 438.199 190.407 438.49 190.233C438.781 190.048 438.926 189.757 438.926 189.36C438.926 188.953 438.791 188.657 438.519 188.473C438.257 188.279 437.84 188.182 437.268 188.182H434.941V190.494ZM434.941 187.178H437.035C437.569 187.178 437.971 187.081 438.243 186.887C438.524 186.684 438.664 186.402 438.664 186.044C438.664 185.675 438.524 185.399 438.243 185.215C437.971 185.03 437.569 184.938 437.035 184.938H434.941V187.178ZM442.508 191.571V183.862H443.905V189.476L448.632 183.862H449.897V191.571H448.501V185.956L443.788 191.571H442.508ZM454.135 191.571V184.72L454.484 185.084H451.313V183.862H458.353V185.084H455.197L455.531 184.72V191.571H454.135ZM463.344 186.48C464.324 186.49 465.07 186.713 465.584 187.149C466.098 187.585 466.355 188.201 466.355 188.996C466.355 189.83 466.074 190.475 465.512 190.931C464.949 191.377 464.154 191.595 463.126 191.585L459.781 191.571V183.862H461.177V186.465L463.344 186.48ZM463.01 190.524C463.64 190.533 464.115 190.407 464.435 190.145C464.765 189.884 464.93 189.496 464.93 188.982C464.93 188.477 464.77 188.109 464.45 187.876C464.13 187.644 463.65 187.522 463.01 187.513L461.177 187.484V190.509L463.01 190.524ZM475.355 191.658C474.579 191.658 473.891 191.488 473.29 191.149C472.688 190.81 472.213 190.344 471.864 189.753C471.515 189.151 471.341 188.473 471.341 187.716C471.341 186.95 471.515 186.271 471.864 185.68C472.213 185.088 472.688 184.628 473.29 184.298C473.891 183.959 474.579 183.789 475.355 183.789C476.121 183.789 476.805 183.959 477.406 184.298C478.017 184.628 478.492 185.088 478.831 185.68C479.181 186.262 479.355 186.941 479.355 187.716C479.355 188.482 479.181 189.161 478.831 189.753C478.492 190.344 478.017 190.81 477.406 191.149C476.805 191.488 476.121 191.658 475.355 191.658ZM475.355 190.436C475.85 190.436 476.291 190.325 476.679 190.102C477.076 189.879 477.387 189.564 477.61 189.156C477.833 188.739 477.944 188.259 477.944 187.716C477.944 187.164 477.833 186.688 477.61 186.291C477.387 185.884 477.076 185.568 476.679 185.345C476.291 185.122 475.85 185.011 475.355 185.011C474.861 185.011 474.419 185.122 474.031 185.345C473.644 185.568 473.333 185.884 473.101 186.291C472.868 186.688 472.752 187.164 472.752 187.716C472.752 188.259 472.868 188.739 473.101 189.156C473.333 189.564 473.644 189.879 474.031 190.102C474.419 190.325 474.861 190.436 475.355 190.436ZM482.615 191.571V184.72L482.964 185.084H479.793V183.862H486.833V185.084H483.676L484.011 184.72V191.571H482.615ZM490.345 191.673C489.763 191.673 489.191 191.6 488.628 191.454C488.076 191.299 487.581 191.081 487.145 190.8L487.566 189.738C487.935 189.971 488.357 190.155 488.832 190.291C489.307 190.417 489.787 190.48 490.272 190.48C490.718 190.48 491.101 190.427 491.421 190.32C491.751 190.213 492.003 190.068 492.177 189.884C492.352 189.69 492.439 189.467 492.439 189.214C492.439 188.856 492.279 188.579 491.959 188.385C491.639 188.191 491.193 188.094 490.621 188.094H489.225V187.091H490.534C490.873 187.091 491.169 187.052 491.421 186.974C491.673 186.897 491.867 186.781 492.003 186.625C492.148 186.461 492.221 186.271 492.221 186.058C492.221 185.825 492.139 185.627 491.974 185.462C491.809 185.297 491.576 185.171 491.276 185.084C490.985 184.996 490.64 184.953 490.243 184.953C489.855 184.962 489.457 185.016 489.05 185.113C488.653 185.21 488.245 185.36 487.828 185.564L487.45 184.473C487.916 184.25 488.371 184.08 488.817 183.964C489.273 183.838 489.724 183.77 490.17 183.76C490.839 183.741 491.436 183.818 491.959 183.993C492.483 184.158 492.895 184.4 493.196 184.72C493.506 185.04 493.661 185.418 493.661 185.854C493.661 186.223 493.545 186.553 493.312 186.844C493.079 187.125 492.769 187.348 492.381 187.513C491.993 187.678 491.547 187.76 491.043 187.76L491.101 187.425C491.964 187.425 492.643 187.595 493.137 187.934C493.632 188.274 493.879 188.734 493.879 189.316C493.879 189.782 493.724 190.194 493.414 190.553C493.103 190.902 492.682 191.178 492.148 191.382C491.625 191.576 491.023 191.673 490.345 191.673ZM503.624 191.571V183.862H505.02V191.571H503.624ZM499.478 186.48C500.458 186.49 501.199 186.713 501.704 187.149C502.218 187.585 502.475 188.201 502.475 188.996C502.475 189.83 502.193 190.475 501.631 190.931C501.078 191.377 500.283 191.595 499.246 191.585L496.002 191.571V183.862H497.398V186.465L499.478 186.48ZM499.144 190.524C499.764 190.533 500.239 190.407 500.569 190.145C500.899 189.884 501.064 189.496 501.064 188.982C501.064 188.477 500.899 188.109 500.569 187.876C500.249 187.644 499.774 187.522 499.144 187.513L497.398 187.484V190.509L499.144 190.524ZM507.735 191.571V183.862H511.313C512.215 183.862 512.923 184.036 513.437 184.385C513.96 184.725 514.222 185.21 514.222 185.84C514.222 186.47 513.975 186.96 513.48 187.309C512.995 187.648 512.35 187.818 511.546 187.818L511.764 187.44C512.685 187.44 513.369 187.61 513.815 187.949C514.261 188.288 514.484 188.788 514.484 189.447C514.484 190.116 514.232 190.64 513.727 191.018C513.233 191.387 512.472 191.571 511.444 191.571H507.735ZM509.102 190.494H511.342C511.924 190.494 512.36 190.407 512.651 190.233C512.942 190.048 513.087 189.757 513.087 189.36C513.087 188.953 512.952 188.657 512.68 188.473C512.418 188.279 512.001 188.182 511.429 188.182H509.102V190.494ZM509.102 187.178H511.197C511.73 187.178 512.132 187.081 512.404 186.887C512.685 186.684 512.826 186.402 512.826 186.044C512.826 185.675 512.685 185.399 512.404 185.215C512.132 185.03 511.73 184.938 511.197 184.938H509.102V187.178Z" fill="white"/>
<path d="M157.814 191.571V181.389H166.585V191.571H165.159V182.276L165.508 182.655H158.89L159.254 182.276V191.571H157.814ZM172.829 191.658C172.053 191.658 171.365 191.488 170.763 191.149C170.162 190.81 169.687 190.344 169.338 189.753C168.989 189.151 168.814 188.473 168.814 187.716C168.814 186.95 168.989 186.271 169.338 185.68C169.687 185.088 170.162 184.628 170.763 184.298C171.365 183.959 172.053 183.789 172.829 183.789C173.595 183.789 174.279 183.959 174.88 184.298C175.491 184.628 175.966 185.088 176.305 185.68C176.654 186.262 176.829 186.941 176.829 187.716C176.829 188.482 176.654 189.161 176.305 189.753C175.966 190.344 175.491 190.81 174.88 191.149C174.279 191.488 173.595 191.658 172.829 191.658ZM172.829 190.436C173.323 190.436 173.765 190.325 174.153 190.102C174.55 189.879 174.86 189.564 175.083 189.156C175.306 188.739 175.418 188.259 175.418 187.716C175.418 187.164 175.306 186.688 175.083 186.291C174.86 185.884 174.55 185.568 174.153 185.345C173.765 185.122 173.323 185.011 172.829 185.011C172.334 185.011 171.893 185.122 171.505 185.345C171.117 185.568 170.807 185.884 170.574 186.291C170.342 186.688 170.225 187.164 170.225 187.716C170.225 188.259 170.342 188.739 170.574 189.156C170.807 189.564 171.117 189.879 171.505 190.102C171.893 190.325 172.334 190.436 172.829 190.436ZM182.205 191.658C181.42 191.658 180.717 191.488 180.096 191.149C179.485 190.81 179.005 190.344 178.656 189.753C178.307 189.161 178.132 188.482 178.132 187.716C178.132 186.95 178.307 186.271 178.656 185.68C179.005 185.088 179.485 184.628 180.096 184.298C180.717 183.959 181.42 183.789 182.205 183.789C182.903 183.789 183.524 183.93 184.067 184.211C184.62 184.482 185.046 184.89 185.347 185.433L184.285 186.116C184.033 185.738 183.723 185.462 183.354 185.287C182.995 185.103 182.608 185.011 182.191 185.011C181.686 185.011 181.235 185.122 180.838 185.345C180.44 185.568 180.125 185.884 179.892 186.291C179.66 186.688 179.543 187.164 179.543 187.716C179.543 188.269 179.66 188.749 179.892 189.156C180.125 189.564 180.44 189.879 180.838 190.102C181.235 190.325 181.686 190.436 182.191 190.436C182.608 190.436 182.995 190.349 183.354 190.174C183.723 189.99 184.033 189.709 184.285 189.331L185.347 190C185.046 190.533 184.62 190.945 184.067 191.236C183.524 191.517 182.903 191.658 182.205 191.658ZM188.583 191.571V184.72L188.932 185.084H185.761V183.862H192.801V185.084H189.644L189.979 184.72V191.571H188.583ZM198.956 191.571V189.942L198.883 189.636V186.858C198.883 186.267 198.709 185.811 198.359 185.491C198.02 185.161 197.506 184.996 196.818 184.996C196.362 184.996 195.916 185.074 195.479 185.229C195.043 185.375 194.675 185.573 194.374 185.825L193.792 184.778C194.19 184.458 194.665 184.216 195.218 184.051C195.78 183.876 196.367 183.789 196.978 183.789C198.035 183.789 198.849 184.046 199.421 184.56C199.993 185.074 200.279 185.859 200.279 186.916V191.571H198.956ZM196.425 191.658C195.853 191.658 195.349 191.561 194.912 191.367C194.486 191.173 194.156 190.907 193.923 190.567C193.69 190.218 193.574 189.825 193.574 189.389C193.574 188.972 193.671 188.594 193.865 188.254C194.069 187.915 194.393 187.644 194.839 187.44C195.295 187.236 195.906 187.134 196.672 187.134H199.116V188.138H196.73C196.032 188.138 195.562 188.254 195.319 188.487C195.077 188.72 194.956 189.001 194.956 189.331C194.956 189.709 195.106 190.014 195.407 190.247C195.707 190.47 196.124 190.582 196.658 190.582C197.181 190.582 197.637 190.465 198.025 190.233C198.422 190 198.709 189.661 198.883 189.214L199.159 190.174C198.975 190.63 198.65 190.994 198.185 191.265C197.719 191.527 197.133 191.658 196.425 191.658ZM202.794 191.571V183.862H206.372C207.274 183.862 207.982 184.036 208.496 184.385C209.019 184.725 209.281 185.21 209.281 185.84C209.281 186.47 209.034 186.96 208.539 187.309C208.054 187.648 207.41 187.818 206.605 187.818L206.823 187.44C207.744 187.44 208.428 187.61 208.874 187.949C209.32 188.288 209.543 188.788 209.543 189.447C209.543 190.116 209.291 190.64 208.786 191.018C208.292 191.387 207.531 191.571 206.503 191.571H202.794ZM204.161 190.494H206.401C206.983 190.494 207.419 190.407 207.71 190.233C208.001 190.048 208.147 189.757 208.147 189.36C208.147 188.953 208.011 188.657 207.739 188.473C207.477 188.279 207.06 188.182 206.488 188.182H204.161V190.494ZM204.161 187.178H206.256C206.789 187.178 207.191 187.081 207.463 186.887C207.744 186.684 207.885 186.402 207.885 186.044C207.885 185.675 207.744 185.399 207.463 185.215C207.191 185.03 206.789 184.938 206.256 184.938H204.161V187.178ZM215.292 186.48C216.271 186.49 217.018 186.713 217.532 187.149C218.046 187.585 218.303 188.201 218.303 188.996C218.303 189.83 218.022 190.475 217.459 190.931C216.897 191.377 216.102 191.595 215.074 191.585L211.728 191.571V183.862H213.125V186.465L215.292 186.48ZM214.957 190.524C215.588 190.533 216.063 190.407 216.383 190.145C216.713 189.884 216.877 189.496 216.877 188.982C216.877 188.477 216.717 188.109 216.397 187.876C216.077 187.644 215.597 187.522 214.957 187.513L213.125 187.484V190.509L214.957 190.524ZM220.869 191.571V184.72L221.218 185.084H218.047V183.862H225.087V185.084H221.931L222.266 184.72V191.571H220.869ZM229.607 191.658C228.783 191.658 228.055 191.488 227.425 191.149C226.805 190.81 226.32 190.344 225.971 189.753C225.631 189.161 225.462 188.482 225.462 187.716C225.462 186.95 225.626 186.271 225.956 185.68C226.295 185.088 226.756 184.628 227.338 184.298C227.929 183.959 228.594 183.789 229.331 183.789C230.077 183.789 230.737 183.954 231.309 184.284C231.881 184.613 232.327 185.079 232.647 185.68C232.977 186.271 233.141 186.965 233.141 187.76C233.141 187.818 233.137 187.886 233.127 187.964C233.127 188.041 233.122 188.114 233.112 188.182H226.552V187.178H232.385L231.818 187.527C231.828 187.033 231.726 186.591 231.512 186.204C231.299 185.816 231.003 185.515 230.625 185.302C230.257 185.079 229.825 184.967 229.331 184.967C228.846 184.967 228.414 185.079 228.036 185.302C227.658 185.515 227.362 185.821 227.149 186.218C226.935 186.606 226.829 187.052 226.829 187.556V187.789C226.829 188.303 226.945 188.764 227.178 189.171C227.42 189.568 227.755 189.879 228.182 190.102C228.608 190.325 229.098 190.436 229.651 190.436C230.106 190.436 230.518 190.359 230.887 190.204C231.265 190.048 231.595 189.816 231.876 189.505L232.647 190.407C232.298 190.814 231.861 191.125 231.338 191.338C230.824 191.551 230.247 191.658 229.607 191.658ZM239.214 191.571V183.862H240.61V187.134H245.003V183.862H246.399V191.571H245.003V188.342H240.61V191.571H239.214ZM253.842 191.571V189.942L253.769 189.636V186.858C253.769 186.267 253.594 185.811 253.245 185.491C252.906 185.161 252.392 184.996 251.703 184.996C251.248 184.996 250.802 185.074 250.365 185.229C249.929 185.375 249.56 185.573 249.26 185.825L248.678 184.778C249.076 184.458 249.551 184.216 250.103 184.051C250.666 183.876 251.253 183.789 251.863 183.789C252.92 183.789 253.735 184.046 254.307 184.56C254.879 185.074 255.165 185.859 255.165 186.916V191.571H253.842ZM251.311 191.658C250.739 191.658 250.234 191.561 249.798 191.367C249.371 191.173 249.042 190.907 248.809 190.567C248.576 190.218 248.46 189.825 248.46 189.389C248.46 188.972 248.557 188.594 248.751 188.254C248.954 187.915 249.279 187.644 249.725 187.44C250.181 187.236 250.792 187.134 251.558 187.134H254.002V188.138H251.616C250.918 188.138 250.448 188.254 250.205 188.487C249.963 188.72 249.842 189.001 249.842 189.331C249.842 189.709 249.992 190.014 250.293 190.247C250.593 190.47 251.01 190.582 251.543 190.582C252.067 190.582 252.523 190.465 252.911 190.233C253.308 190 253.594 189.661 253.769 189.214L254.045 190.174C253.861 190.63 253.536 190.994 253.071 191.265C252.605 191.527 252.019 191.658 251.311 191.658ZM257.68 191.571V183.862H259.12L262.436 189.564H261.854L265.258 183.862H266.567V191.571H265.301V185.433L265.534 185.564L262.421 190.698H261.81L258.683 185.462L258.96 185.404V191.571H257.68ZM276.493 191.658C275.717 191.658 275.028 191.488 274.427 191.149C273.826 190.81 273.351 190.344 273.002 189.753C272.653 189.151 272.478 188.473 272.478 187.716C272.478 186.95 272.653 186.271 273.002 185.68C273.351 185.088 273.826 184.628 274.427 184.298C275.028 183.959 275.717 183.789 276.493 183.789C277.259 183.789 277.942 183.959 278.544 184.298C279.154 184.628 279.63 185.088 279.969 185.68C280.318 186.262 280.493 186.941 280.493 187.716C280.493 188.482 280.318 189.161 279.969 189.753C279.63 190.344 279.154 190.81 278.544 191.149C277.942 191.488 277.259 191.658 276.493 191.658ZM276.493 190.436C276.987 190.436 277.428 190.325 277.816 190.102C278.214 189.879 278.524 189.564 278.747 189.156C278.97 188.739 279.082 188.259 279.082 187.716C279.082 187.164 278.97 186.688 278.747 186.291C278.524 185.884 278.214 185.568 277.816 185.345C277.428 185.122 276.987 185.011 276.493 185.011C275.998 185.011 275.557 185.122 275.169 185.345C274.781 185.568 274.471 185.884 274.238 186.291C274.005 186.688 273.889 187.164 273.889 187.716C273.889 188.259 274.005 188.739 274.238 189.156C274.471 189.564 274.781 189.879 275.169 190.102C275.557 190.325 275.998 190.436 276.493 190.436ZM282.509 191.571V183.862H283.905V190.349H288.123V183.862H289.52V191.571H282.509ZM289.418 193.36V191.498L289.767 191.571H288.123V190.349H290.742V193.36H289.418ZM295.984 191.658C295.16 191.658 294.433 191.488 293.802 191.149C293.182 190.81 292.697 190.344 292.348 189.753C292.008 189.161 291.839 188.482 291.839 187.716C291.839 186.95 292.004 186.271 292.333 185.68C292.673 185.088 293.133 184.628 293.715 184.298C294.307 183.959 294.971 183.789 295.708 183.789C296.454 183.789 297.114 183.954 297.686 184.284C298.258 184.613 298.704 185.079 299.024 185.68C299.354 186.271 299.519 186.965 299.519 187.76C299.519 187.818 299.514 187.886 299.504 187.964C299.504 188.041 299.499 188.114 299.49 188.182H292.93V187.178H298.762L298.195 187.527C298.205 187.033 298.103 186.591 297.89 186.204C297.676 185.816 297.38 185.515 297.002 185.302C296.634 185.079 296.202 184.967 295.708 184.967C295.223 184.967 294.791 185.079 294.413 185.302C294.035 185.515 293.739 185.821 293.526 186.218C293.313 186.606 293.206 187.052 293.206 187.556V187.789C293.206 188.303 293.322 188.764 293.555 189.171C293.797 189.568 294.132 189.879 294.559 190.102C294.985 190.325 295.475 190.436 296.028 190.436C296.484 190.436 296.896 190.359 297.264 190.204C297.642 190.048 297.972 189.816 298.253 189.505L299.024 190.407C298.675 190.814 298.239 191.125 297.715 191.338C297.201 191.551 296.624 191.658 295.984 191.658ZM301.685 191.571V183.862H303.081V187.134H307.474V183.862H308.87V191.571H307.474V188.342H303.081V191.571H301.685ZM317.171 191.571L314.189 187.818L315.338 187.12L318.814 191.571H317.171ZM311.585 191.571V183.862H312.982V191.571H311.585ZM312.56 188.313V187.12H315.105V188.313H312.56ZM315.454 187.876L314.16 187.702L317.113 183.862H318.611L315.454 187.876ZM320.231 194.48C319.862 194.48 319.504 194.417 319.154 194.291C318.805 194.174 318.505 194 318.253 193.767L318.849 192.72C319.043 192.904 319.256 193.045 319.489 193.142C319.722 193.239 319.969 193.287 320.231 193.287C320.57 193.287 320.851 193.2 321.074 193.025C321.297 192.851 321.506 192.54 321.7 192.094L322.18 191.033L322.325 190.858L325.351 183.862H326.718L322.98 192.342C322.757 192.885 322.505 193.311 322.224 193.622C321.952 193.932 321.651 194.15 321.322 194.276C320.992 194.412 320.628 194.48 320.231 194.48ZM322.064 191.818L318.544 183.862H319.998L322.994 190.727L322.064 191.818Z" fill="black"/>
</svg>
